<?xml version="1.0" encoding="UTF-8" standalone="no"?>
<!DOCTYPE svg PUBLIC "-//W3C//DTD SVG 1.1//EN" "http://www.w3.org/Graphics/SVG/1.1/DTD/svg11.dtd">
<svg width="100%" height="100%" viewBox="0 0 2500 2500" version="1.1" xmlns="http://www.w3.org/2000/svg" xmlns:xlink="http://www.w3.org/1999/xlink" xml:space="preserve" xmlns:serif="http://www.serif.com/" style="fill-rule:evenodd;clip-rule:evenodd;stroke-linejoin:round;stroke-miterlimit:2;">
    <g>
        <rect x="0" y="0" width="2500" height="2500" style="fill:none;fill-rule:nonzero;"/>
        <path d="M949.947,1115.76C940.152,1202.71 931.764,1274.19 926.893,1327.88C906.297,1554.92 895.997,1668.45 900.711,1722.45C906.479,1788.54 918.392,1831.4 898.657,1882.71C896.365,1888.67 883.599,1920.86 883.15,1963.69C882.917,1985.8 882.963,2005.14 894.957,2013.7C911.668,2025.62 934.881,2004.68 974.595,1999.57C1009.68,1995.05 1040.459,2005.09 1062.34,2015.38C1072,1920.11 1092.73,1832.36 1101.46,1736.95C1113.22,1608.36 1112.59,1472.11 1122.65,1343.4C1141.25,1402.68 1151.72,1451.8 1157.75,1484.6C1193.07,1676.71 1212.56,1782.73 1189.85,1898.22C1185.57,1919.95 1174.89,1967 1198.46,1987.81C1210.23,1998.2 1226.8,1998.77 1271.9,1993.47C1304.22,1989.67 1346.9,1983.36 1397.07,1972.27C1379.41,1791.49 1349.81,1593.5 1302.34,1382.54C1278.55,1276.81 1252.21,1176.4 1224.31,1081.51C1132.41,1092.42 1041.839,1104.84 949.947,1115.76Z" style="fill:white;fill-rule:nonzero;"/>
        <path d="M951.947,1117.75C950.171,1133.5 948.443,1148.75 946.773,1163.47C939.408,1228.43 933.047,1284.52 929.095,1328.08C908.531,1554.77 898.217,1668.47 902.913,1722.26C904.139,1736.31 905.627,1749.16 907.065,1761.58C912.306,1806.86 916.445,1842.62 900.72,1883.5L900.559,1883.92C891.039,1908.6 885.642,1936.94 885.361,1963.72C885.143,1984.35 884.938,2003.83 896.241,2011.9C905.075,2018.2 916.454,2014.15 932.204,2008.55C943.513,2004.54 957.587,1999.53 974.312,1997.38C1002.06,1993.81 1031.02,1998.75 1060.46,2012.08C1065.13,1967.22 1072.3,1923.38 1079.23,1880.96C1086.86,1834.35 1094.74,1786.15 1099.26,1736.75C1105.56,1667.89 1108.34,1595.68 1111.03,1525.84C1113.36,1465.45 1115.77,1403 1120.45,1343.23C1120.53,1342.18 1121.35,1341.33 1122.4,1341.21C1123.46,1341.07 1124.44,1341.73 1124.76,1342.74C1139.44,1389.55 1151.28,1437.14 1159.93,1484.2C1195.31,1676.7 1214.81,1782.74 1192.02,1898.64L1191.41,1901.7C1186.85,1924.56 1178.36,1967.11 1199.93,1986.16C1210.68,1995.65 1225.42,1996.7 1271.64,1991.27C1312.41,1986.48 1353.79,1979.5 1394.68,1970.53C1375.34,1773.42 1343.55,1575.76 1300.18,1383.02C1277.67,1282.98 1251.61,1182.36 1222.71,1083.92C1177.41,1089.31 1131.71,1095.16 1087.5,1100.81C1043.18,1106.48 997.364,1112.34 951.947,1117.75ZM906.75,2019.51C902.033,2019.51 897.698,2018.37 893.674,2015.5C880.493,2006.09 880.709,1985.49 880.939,1963.67C881.226,1936.38 886.729,1907.49 896.434,1882.33L896.593,1881.92C911.928,1842.05 907.844,1806.76 902.672,1762.09C901.231,1749.64 899.741,1736.76 898.509,1722.65C893.779,1668.46 904.104,1554.64 924.673,1327.87C928.648,1284.07 935.011,1227.95 942.38,1162.97C944.111,1147.71 945.905,1131.88 947.75,1115.51C947.865,1114.49 948.667,1113.68 949.687,1113.56C995.653,1108.1 1042.06,1102.17 1086.93,1096.43C1131.76,1090.69 1178.12,1084.76 1224.05,1079.31C1225.11,1079.18 1226.12,1079.85 1226.43,1080.88C1255.56,1179.98 1281.83,1281.31 1304.5,1382.05C1348.04,1575.6 1379.93,1774.11 1399.27,1972.05C1399.38,1973.17 1398.64,1974.18 1397.54,1974.43C1355.9,1983.63 1313.71,1990.78 1272.16,1995.66C1227.77,2000.88 1209.75,2000.73 1197,1989.47C1173.53,1968.74 1182.34,1924.57 1187.07,1900.83L1187.68,1897.79C1210.31,1782.71 1190.87,1676.97 1155.58,1485C1147.64,1441.84 1137.02,1398.23 1123.98,1355.2C1119.88,1411.33 1117.63,1469.57 1115.45,1526.01C1112.76,1595.9 1109.97,1668.17 1103.66,1737.16C1099.13,1786.71 1091.23,1834.99 1083.6,1881.68C1076.51,1925 1069.18,1969.8 1064.54,2015.6C1064.47,2016.32 1064.06,2016.95 1063.43,2017.3C1062.81,2017.66 1062.05,2017.69 1061.4,2017.38C1031.77,2003.44 1002.65,1998.18 974.877,2001.76C958.623,2003.85 945.373,2008.57 933.685,2012.72C923.465,2016.35 914.584,2019.51 906.75,2019.51Z" style="fill-rule:nonzero;"/>
        <path d="M1124.67,1382.2C1123.45,1382.2 1122.46,1381.21 1122.46,1379.99C1122.46,1379.75 1122.41,1378.34 1122.33,1376.07C1121.91,1364.01 1120.65,1327.29 1121.1,1312.64C1121.84,1288.08 1137.94,1266.19 1161.16,1258.16C1162.31,1257.77 1163.57,1258.37 1163.97,1259.53C1164.37,1260.68 1163.76,1261.94 1162.61,1262.34C1141.11,1269.77 1126.21,1290.04 1125.52,1312.78C1125.08,1327.29 1126.33,1363.89 1126.75,1375.92C1126.83,1378.32 1126.88,1379.79 1126.88,1379.99C1126.88,1381.21 1125.89,1382.2 1124.67,1382.2Z" style="fill-rule:nonzero;"/>
        <path d="M1428.17,697.244L1384.61,780.124C1384.61,780.124 1305.89,821.532 1367.42,957.026C1368.99,960.481 1367.06,964.517 1363.38,965.44C1343.33,970.468 1287.39,983.599 1281.43,975.131C1274.16,964.793 1246.83,726.271 1428.17,697.244Z" style="fill:white;fill-rule:nonzero;"/>
        <path d="M1424.13,700.178C1365.88,710.796 1324.14,744.662 1300.03,800.891C1266.47,879.166 1279.89,968.987 1283.24,973.859C1286.04,977.838 1311.74,976.111 1362.84,963.296C1363.95,963.018 1364.87,962.266 1365.37,961.234C1365.87,960.193 1365.89,958.993 1365.41,957.939C1333.29,887.204 1339.8,842.186 1350.92,816.876C1362.03,791.593 1379.4,780.567 1382.96,778.514L1424.13,700.178ZM1293.41,980.06C1285.94,980.06 1281.34,978.842 1279.62,976.403C1274.72,969.432 1262.91,877.424 1295.48,800.293C1320.73,740.479 1365.26,705.075 1427.82,695.062C1428.65,694.921 1429.47,695.273 1429.96,695.956C1430.45,696.636 1430.51,697.532 1430.12,698.272L1386.57,781.152C1386.36,781.547 1386.04,781.871 1385.64,782.08C1385.45,782.182 1366.34,792.542 1354.84,818.934C1344.19,843.399 1338.07,887.055 1369.43,956.113C1370.46,958.363 1370.43,960.93 1369.35,963.156C1368.29,965.371 1366.3,966.985 1363.92,967.583C1330.79,975.894 1307.21,980.06 1293.41,980.06Z" style="fill-rule:nonzero;"/>
        <path d="M1241.58,1140.15C1220.47,1019.97 1248,902.312 1226.89,782.131C1196.19,769.424 1147.52,753.611 1086.04,751.117C1039.14,749.214 998.701,755.622 967.275,763.657C938.252,771.077 912.91,788.978 896.718,814.182C891.68,822.024 886.95,830.737 883.099,840.262C876.35,856.958 870.477,871.496 866.948,883.887C864.18,893.606 867.878,904.052 876.32,909.606C897.641,923.634 921.649,949.775 941.566,957.476C917.207,1030.62 956.717,1072.88 945.004,1148.75C957.899,1155.62 1098.02,1180.55 1241.58,1140.15Z" style="fill-rule:nonzero;"/>
        <path d="M1256.2,690.833C1258.8,688.114 1385.08,784.518 1385.08,784.518C1385.08,784.518 1287.58,920.501 1286.34,1015.98C1286.34,1015.98 1195.52,1000.33 1172.79,966.086C1172.79,966.086 1149.11,802.614 1256.2,690.833Z" style="fill:white;fill-rule:nonzero;"/>
        <path d="M1257.8,692.361C1257.79,692.367 1257.79,692.365 1257.8,692.361ZM1174.92,965.28C1195.19,994.929 1269.5,1010.51 1284.19,1013.33C1286.95,924.314 1370.8,801.114 1382.05,784.986C1335.68,749.614 1266.92,698.155 1256.91,693.292C1155.69,799.954 1173.64,955.347 1174.92,965.28ZM1286.34,1018.19C1286.22,1018.19 1286.09,1018.18 1285.97,1018.16C1282.22,1017.52 1193.94,1001.95 1170.95,967.307C1170.77,967.035 1170.65,966.727 1170.61,966.403C1170.55,965.99 1164.73,924.597 1172.15,870.079C1179,819.717 1198.87,747.475 1254.6,689.304L1254.6,689.302C1256.53,687.305 1257.58,686.19 1322.94,734.883C1354.48,758.379 1386.1,782.519 1386.42,782.76C1387.37,783.486 1387.57,784.835 1386.87,785.807C1385.9,787.16 1289.77,922.326 1288.56,1016.01C1288.55,1016.66 1288.25,1017.27 1287.76,1017.68C1287.36,1018.01 1286.86,1018.19 1286.34,1018.19Z" style="fill-rule:nonzero;"/>
        <path d="M1236.85,863.305C1225.17,854.555 1187.02,829.089 1173.53,837.029C1167.54,840.55 1156.36,844.601 1147.45,853.771C1132.59,869.056 1115.79,882.329 1096.7,891.811L979.252,950.14C963.89,957.083 946,955.386 932.217,945.678L878.382,903.318C878.382,903.318 850.326,1043.65 931.353,1064.09C1001.98,1081.9 1122.45,942.761 1152.19,906.774C1156.57,901.479 1163.04,898.4 1169.91,898.337C1183.13,898.217 1204.32,897.939 1209.95,897.373C1244.56,893.888 1244.68,869.168 1236.85,863.305Z" style="fill:white;fill-rule:nonzero;"/>
        <path d="M879.918,907.34C876.314,929.226 860.976,1044.06 931.893,1061.94C935.911,1062.96 940.112,1063.44 944.454,1063.44C1016.02,1063.45 1127.69,932.948 1150.48,905.367C1155.28,899.564 1162.35,896.196 1169.89,896.126C1191.43,895.93 1205.58,895.591 1209.73,895.172C1231.71,892.959 1236.99,882.245 1238.25,877.739C1239.84,872.026 1238.03,866.951 1235.53,865.075L1235.53,865.072C1217.62,851.654 1185.26,832.692 1174.65,838.934C1173.09,839.85 1171.28,840.758 1169.19,841.81C1163.07,844.877 1155.46,848.697 1149.03,855.314C1132.85,871.961 1115.57,884.907 1097.68,893.791L980.236,952.119C964.165,959.386 945.303,957.601 930.944,947.486L879.918,907.34ZM944.497,1067.86C939.776,1067.86 935.206,1067.34 930.811,1066.23C896.679,1057.62 876.439,1026.5 872.279,976.224C869.175,938.708 876.143,903.238 876.214,902.884C876.365,902.131 876.896,901.509 877.617,901.243C878.339,900.98 879.146,901.105 879.749,901.58L933.583,943.941C946.575,953.084 963.76,954.714 978.342,948.125L1095.71,889.831C1113.15,881.169 1130.02,868.52 1145.86,852.231C1152.81,845.081 1161.13,840.905 1167.21,837.859C1169.23,836.842 1170.98,835.963 1172.41,835.124C1189.31,825.158 1236.19,860.046 1238.18,861.536C1242.57,864.831 1244.39,872.141 1242.51,878.924C1241.01,884.304 1234.86,897.085 1210.17,899.572C1204.69,900.125 1185.26,900.408 1169.93,900.548C1163.7,900.604 1157.86,903.387 1153.89,908.182C1121.64,947.212 1016.06,1067.86 944.497,1067.86Z" style="fill-rule:nonzero;"/>
        <path d="M1339.36,788.188C1338.93,788.188 1338.5,788.065 1338.12,787.806L1259.91,734.704C1258.9,734.02 1258.63,732.645 1259.32,731.634C1260,730.624 1261.38,730.363 1262.39,731.047L1340.61,784.148C1341.62,784.833 1341.88,786.208 1341.19,787.219C1340.76,787.849 1340.07,788.188 1339.36,788.188Z" style="fill-rule:nonzero;"/>
        <path d="M1324.53,810.753C1324.11,810.753 1323.68,810.632 1323.31,810.38L1245.29,758.157C1244.28,757.477 1244.01,756.104 1244.69,755.089C1245.36,754.072 1246.74,753.802 1247.75,754.482L1325.76,806.705C1326.78,807.385 1327.05,808.758 1326.37,809.773C1325.95,810.41 1325.25,810.753 1324.53,810.753Z" style="fill-rule:nonzero;"/>
        <path d="M1312.61,833.964C1312.21,833.964 1311.81,833.858 1311.45,833.634L1280.18,814.292C1279.14,813.648 1278.82,812.286 1279.46,811.248C1280.1,810.209 1281.46,809.885 1282.5,810.531L1313.77,829.873C1314.81,830.516 1315.13,831.878 1314.49,832.917C1314.07,833.593 1313.35,833.964 1312.61,833.964Z" style="fill-rule:nonzero;"/>
        <path d="M1183.17,608.092C1183.54,606.619 1155.27,576.537 1155.27,576.537L1103.76,580.608C1072.96,579.223 1069.81,638.524 1069.81,638.524C1069.81,638.524 1071.99,644.933 1073.07,652.465C1062.34,678.83 1030.54,751.236 1000.58,762.37C982.679,769.02 1029.459,828.437 1069.52,829.293C1109.58,830.149 1152.86,815.033 1153.48,799.86C1154.1,784.688 1104.65,750.675 1104.65,750.675L1114.03,727.594C1119.07,730.612 1124.25,733.298 1129.18,735.159C1135.62,737.593 1142.8,734.167 1144.98,727.629L1156.72,694.395L1163.61,696.117C1167.39,697.063 1171.87,694.301 1171.31,690.443C1166.52,657.908 1180.37,619.333 1183.17,608.092Z" style="fill:white;fill-rule:nonzero;"/>
        <path d="M1181.02,607.555L1181.02,607.566L1181.02,607.555ZM1072.04,638.24C1072.56,639.823 1074.3,645.527 1075.26,652.15C1075.31,652.539 1075.26,652.937 1075.12,653.299C1063.05,682.958 1031.709,753.159 1001.35,764.442C1000.49,764.761 998.202,765.61 999.035,770.543C1001.95,787.797 1037.949,826.408 1069.56,827.082C1111.06,828.046 1150.76,812.45 1151.27,799.771C1151.69,789.537 1122.87,765.893 1103.4,752.499C1102.55,751.909 1102.22,750.806 1102.61,749.845L1111.98,726.762C1112.23,726.164 1112.72,725.702 1113.33,725.497C1113.94,725.285 1114.62,725.363 1115.17,725.697C1120.58,728.94 1125.55,731.427 1129.96,733.092C1132.5,734.055 1135.25,733.938 1137.71,732.768C1140.18,731.596 1142.02,729.521 1142.88,726.93L1154.63,693.658C1155.01,692.583 1156.15,691.972 1157.25,692.251L1164.14,693.974C1165.53,694.317 1167.17,693.904 1168.23,692.946C1168.72,692.505 1169.27,691.77 1169.12,690.766C1165,662.794 1174.5,630.203 1179.06,614.542C1179.79,612.055 1180.4,609.958 1180.83,608.324C1178.62,605.105 1166.03,591.238 1154.39,578.826L1103.93,582.812C1103.84,582.818 1103.75,582.82 1103.66,582.816C1076.62,581.648 1072.4,633.13 1072.04,638.24ZM1072.6,831.535C1071.55,831.535 1070.51,831.524 1069.47,831.503C1035.3,830.773 997.861,790.153 994.675,771.279C993.42,763.85 997.352,761.209 999.808,760.296C1029.1,749.416 1061.26,675.554 1070.79,652.191C1069.73,645.218 1067.74,639.296 1067.72,639.236C1067.63,638.97 1067.59,638.688 1067.6,638.409C1067.74,635.928 1071.16,578.373 1102.67,578.373C1103.02,578.373 1103.36,578.379 1103.72,578.392L1155.1,574.333C1155.78,574.271 1156.42,574.534 1156.88,575.024C1185.97,605.975 1185.67,607.208 1185.31,608.624C1184.87,610.409 1184.18,612.778 1183.31,615.779C1178.83,631.14 1169.52,663.105 1173.49,690.122C1173.83,692.378 1172.99,694.602 1171.2,696.223C1169.06,698.162 1165.87,698.963 1163.07,698.261L1158.13,697.026L1147.06,728.366C1145.83,732.073 1143.18,735.067 1139.61,736.76C1136.06,738.452 1132.07,738.619 1128.39,737.228C1124.36,735.704 1119.9,733.543 1115.12,730.794L1107.37,749.869C1116.67,756.387 1156.3,785.038 1155.69,799.952C1154.98,817.433 1110.2,831.535 1072.6,831.535Z" style="fill-rule:nonzero;"/>
        <path d="M1115.64,730.808C1115.19,730.808 1114.74,730.671 1114.35,730.389L1101.36,721.001C1088.09,711.407 1080.8,698.762 1080.27,684.429C1080.23,683.209 1081.18,682.184 1082.4,682.138C1083.64,682.056 1084.64,683.045 1084.69,684.265C1085.17,697.372 1091.65,708.527 1103.95,717.417L1116.94,726.805C1117.93,727.52 1118.15,728.903 1117.43,729.892C1117,730.49 1116.33,730.808 1115.64,730.808Z" style="fill-rule:nonzero;"/>
        <path d="M1107.31,642.035C1109.21,641.835 1110.7,640.364 1110.95,638.473C1111.09,637.387 1111.21,636.158 1111.29,634.815C1112.17,619.64 1105.96,612.057 1109.86,605.842C1111.99,602.44 1115.94,601.385 1118.18,600.785C1129.33,597.806 1134.81,613.658 1155.99,627.693C1182.29,645.12 1184.26,648.373 1190.43,648.973C1213.64,651.229 1225.93,625.949 1231.98,611.757C1233.68,607.774 1242.14,586.398 1228.88,568.048C1222,558.511 1211.22,552.521 1199.39,551.112C1192.53,550.295 1186.37,546.062 1183.86,539.629C1183.21,537.964 1182.3,536.35 1181.07,534.879C1170.83,522.674 1145.87,530.12 1137.13,532.726C1131.08,534.533 1121.15,538.25 1110.31,546.333C1104.29,550.822 1096.08,551.166 1089.65,547.283C1086.47,545.361 1082.6,543.817 1078.12,543.495C1060.81,542.248 1049.61,560.351 1048.569,562.078C1036.53,582.214 1046.43,608.28 1053.91,627.962C1059.29,642.115 1065.74,652.889 1070.37,659.799L1070.5,659.781C1076.37,658.999 1080.22,653.199 1078.58,647.506C1077.63,644.186 1077,640.343 1077.11,636.094C1077.19,632.776 1076.74,622.216 1084.91,618.993C1089.95,617.003 1101.62,620.443 1102.71,637.841C1102.86,640.322 1104.75,642.304 1107.23,642.044L1107.31,642.035Z" style="fill-rule:nonzero;"/>
        <path d="M1212.6,1804.01C1234.32,1759.32 1236.39,1714.29 1212.6,1668.8L1229.68,1648.33L1696.55,1663.68L1680.45,1811.99L1228.53,1817.2L1212.6,1804.01Z" style="fill:white;fill-rule:nonzero;"/>
        <path d="M1215.35,1803.41L1229.31,1814.98L1678.47,1809.81L1694.09,1665.81L1230.68,1650.57L1215.24,1669.09C1237.25,1712.09 1237.29,1757.26 1215.35,1803.41ZM1228.53,1819.41C1228.01,1819.41 1227.52,1819.23 1227.12,1818.9L1211.19,1805.72C1210.41,1805.07 1210.17,1803.96 1210.62,1803.05C1233.2,1756.56 1233.21,1712.99 1210.65,1669.82C1210.23,1669.03 1210.33,1668.07 1210.91,1667.38L1227.98,1646.91C1228.41,1646.39 1229.07,1646.09 1229.75,1646.12L1696.62,1661.47C1697.23,1661.49 1697.81,1661.77 1698.22,1662.23C1698.62,1662.7 1698.81,1663.31 1698.74,1663.92L1682.65,1812.23C1682.53,1813.34 1681.6,1814.19 1680.48,1814.2L1228.55,1819.41L1228.53,1819.41Z" style="fill-rule:nonzero;"/>
        <path d="M2070.48,1632L1203.94,1632C1193.81,1632 1185.6,1640.21 1185.6,1650.34C1185.6,1660.47 1193.81,1668.68 1203.94,1668.68L1602.32,1668.68C1631.49,1668.68 1655.14,1692.33 1655.14,1721.5L1655.14,1751.19C1655.14,1780.37 1631.49,1804.01 1602.32,1804.01L1203.94,1804.01C1193.81,1804.01 1185.6,1812.22 1185.6,1822.35C1185.6,1832.48 1193.81,1840.69 1203.94,1840.69L2070.48,1840.69C2124.27,1840.69 2167.87,1797.09 2167.87,1743.3L2167.87,1729.39C2167.87,1675.6 2124.27,1632 2070.48,1632Z" style="fill:white;fill-rule:nonzero;"/>
        <path d="M1203.94,1806.22C1195.05,1806.22 1187.81,1813.46 1187.81,1822.35C1187.81,1831.25 1195.05,1838.48 1203.94,1838.48L2070.48,1838.48C2122.96,1838.48 2165.66,1795.78 2165.66,1743.3L2165.66,1729.39C2165.66,1676.91 2122.96,1634.21 2070.48,1634.21L1203.94,1634.21C1195.05,1634.21 1187.81,1641.45 1187.81,1650.34C1187.81,1659.23 1195.05,1666.47 1203.94,1666.47L1602.32,1666.47C1632.67,1666.47 1657.35,1691.15 1657.35,1721.5L1657.35,1751.19C1657.35,1781.54 1632.67,1806.22 1602.32,1806.22L1203.94,1806.22ZM2070.48,1842.9L1203.94,1842.9C1192.61,1842.9 1183.39,1833.68 1183.39,1822.35C1183.39,1811.02 1192.61,1801.8 1203.94,1801.8L1602.32,1801.8C1630.23,1801.8 1652.93,1779.1 1652.93,1751.19L1652.93,1721.5C1652.93,1693.59 1630.23,1670.89 1602.32,1670.89L1203.94,1670.89C1192.61,1670.89 1183.39,1661.67 1183.39,1650.34C1183.39,1639.01 1192.61,1629.79 1203.94,1629.79L2070.48,1629.79C2125.4,1629.79 2170.08,1674.47 2170.08,1729.39L2170.08,1743.3C2170.08,1798.22 2125.4,1842.9 2070.48,1842.9Z" style="fill-rule:nonzero;"/>
        <path d="M1475.49,1710.22L1441.37,1710.22C1440.15,1710.22 1439.16,1709.23 1439.16,1708.01C1439.16,1706.78 1440.15,1705.79 1441.37,1705.79L1475.49,1705.79C1476.71,1705.79 1477.7,1706.78 1477.7,1708.01C1477.7,1709.23 1476.71,1710.22 1475.49,1710.22Z" style="fill-rule:nonzero;"/>
        <path d="M1420.01,1710.22L1239.38,1710.22C1238.16,1710.22 1237.17,1709.23 1237.17,1708.01C1237.17,1706.78 1238.16,1705.79 1239.38,1705.79L1420.01,1705.79C1421.23,1705.79 1422.22,1706.78 1422.22,1708.01C1422.22,1709.23 1421.23,1710.22 1420.01,1710.22Z" style="fill-rule:nonzero;"/>
        <path d="M1454.75,1732.31L1241.04,1732.31C1239.82,1732.31 1238.83,1731.32 1238.83,1730.1C1238.83,1728.88 1239.82,1727.89 1241.04,1727.89L1454.75,1727.89C1455.98,1727.89 1456.96,1728.88 1456.96,1730.1C1456.96,1731.32 1455.98,1732.31 1454.75,1732.31Z" style="fill-rule:nonzero;"/>
        <path d="M1508.51,1771.91L1469.67,1771.91C1468.45,1771.91 1467.46,1770.92 1467.46,1769.7C1467.46,1768.48 1468.45,1767.49 1469.67,1767.49L1508.51,1767.49C1509.73,1767.49 1510.72,1768.48 1510.72,1769.7C1510.72,1770.92 1509.73,1771.91 1508.51,1771.91Z" style="fill-rule:nonzero;"/>
        <path d="M1453.09,1771.91L1239.38,1771.91C1238.16,1771.91 1237.17,1770.92 1237.17,1769.7C1237.17,1768.48 1238.16,1767.49 1239.38,1767.49L1453.09,1767.49C1454.31,1767.49 1455.3,1768.48 1455.3,1769.7C1455.3,1770.92 1454.31,1771.91 1453.09,1771.91Z" style="fill-rule:nonzero;"/>
        <path d="M1169.71,2059.64L1973.54,2059.64L1973.54,1862.7L1169.71,1862.7C1193.44,1929.22 1194.09,1994.89 1169.71,2059.64Z" style="fill:white;fill-rule:nonzero;"/>
        <path d="M1172.89,2057.43L1971.33,2057.43L1971.33,1864.91L1172.83,1864.91C1195.54,1930.46 1195.56,1995.2 1172.89,2057.43ZM1973.54,2061.851L1169.71,2061.851C1168.98,2061.851 1168.3,2061.49 1167.89,2060.9C1167.48,2060.3 1167.38,2059.54 1167.64,2058.861C1191.39,1995.79 1191.38,1930.04 1167.63,1863.45C1167.38,1862.77 1167.49,1862.02 1167.9,1861.43C1168.32,1860.84 1168.99,1860.49 1169.71,1860.49L1973.54,1860.49C1974.77,1860.49 1975.76,1861.48 1975.76,1862.7L1975.76,2059.64C1975.76,2060.861 1974.77,2061.851 1973.54,2061.851Z" style="fill-rule:nonzero;"/>
        <path d="M1876.77,1872.42L1164.18,1872.42C1155.61,1872.42 1148.66,1865.47 1148.66,1856.9C1148.66,1848.33 1155.61,1841.38 1164.18,1841.38L2088.889,1841.38C2126.55,1841.38 2157.08,1871.91 2157.08,1909.57L2157.08,2016.77C2157.08,2054.43 2126.55,2084.96 2088.889,2084.96L1164.18,2084.96C1155.61,2084.96 1148.66,2078.01 1148.66,2069.44C1148.66,2060.871 1155.61,2053.92 1164.18,2053.92L1876.77,2053.92C1903.38,2053.92 1924.95,2032.36 1924.95,2005.75L1924.95,1920.59C1924.95,1893.99 1903.38,1872.42 1876.77,1872.42Z" style="fill:white;fill-rule:nonzero;"/>
        <path d="M1164.18,2056.13C1156.84,2056.13 1150.87,2062.101 1150.87,2069.44C1150.87,2076.78 1156.84,2082.75 1164.18,2082.75L2088.889,2082.75C2125.27,2082.75 2154.87,2053.15 2154.87,2016.77L2154.87,1909.57C2154.87,1873.19 2125.27,1843.59 2088.889,1843.59L1164.18,1843.59C1156.84,1843.59 1150.87,1849.56 1150.87,1856.9C1150.87,1864.24 1156.84,1870.21 1164.18,1870.21L1876.77,1870.21C1904.55,1870.21 1927.16,1892.81 1927.16,1920.59L1927.16,2005.75C1927.16,2033.53 1904.55,2056.13 1876.77,2056.13L1164.18,2056.13ZM2088.889,2087.17L1164.18,2087.17C1154.4,2087.17 1146.45,2079.22 1146.45,2069.44C1146.45,2059.67 1154.4,2051.71 1164.18,2051.71L1876.77,2051.71C1902.12,2051.71 1922.74,2031.09 1922.74,2005.75L1922.74,1920.59C1922.74,1895.25 1902.12,1874.63 1876.77,1874.63L1164.18,1874.63C1154.4,1874.63 1146.45,1866.68 1146.45,1856.9C1146.45,1847.13 1154.4,1839.17 1164.18,1839.17L2088.889,1839.17C2127.71,1839.17 2159.29,1870.75 2159.29,1909.57L2159.29,2016.77C2159.29,2055.591 2127.71,2087.17 2088.889,2087.17Z" style="fill-rule:nonzero;"/>
        <path d="M1314.27,1911.68L1195.57,1911.68C1194.35,1911.68 1193.36,1910.69 1193.36,1909.47C1193.36,1908.25 1194.35,1907.26 1195.57,1907.26L1314.27,1907.26C1315.49,1907.26 1316.48,1908.25 1316.48,1909.47C1316.48,1910.69 1315.49,1911.68 1314.27,1911.68Z" style="fill-rule:nonzero;"/>
        <path d="M1550.38,1911.68L1334.62,1911.68C1333.4,1911.68 1332.41,1910.69 1332.41,1909.47C1332.41,1908.25 1333.4,1907.26 1334.62,1907.26L1550.38,1907.26C1551.6,1907.26 1552.59,1908.25 1552.59,1909.47C1552.59,1910.69 1551.6,1911.68 1550.38,1911.68Z" style="fill-rule:nonzero;"/>
        <path d="M1494.69,1937.96L1198.08,1937.96C1196.85,1937.96 1195.87,1936.97 1195.87,1935.75C1195.87,1934.53 1196.85,1933.54 1198.08,1933.54L1494.69,1933.54C1495.91,1933.54 1496.9,1934.53 1496.9,1935.75C1496.9,1936.97 1495.91,1937.96 1494.69,1937.96Z" style="fill-rule:nonzero;"/>
        <path d="M1580.15,1937.96L1519.79,1937.96C1518.57,1937.96 1517.58,1936.97 1517.58,1935.75C1517.58,1934.53 1518.57,1933.54 1519.79,1933.54L1580.15,1933.54C1581.37,1933.54 1582.36,1934.53 1582.36,1935.75C1582.36,1936.97 1581.37,1937.96 1580.15,1937.96Z" style="fill-rule:nonzero;"/>
        <path d="M1512.61,1992.82L1198.08,1992.82C1196.85,1992.82 1195.87,1991.83 1195.87,1990.61C1195.87,1989.39 1196.85,1988.4 1198.08,1988.4L1512.61,1988.4C1513.83,1988.4 1514.82,1989.39 1514.82,1990.61C1514.82,1991.83 1513.83,1992.82 1512.61,1992.82Z" style="fill-rule:nonzero;"/>
        <path d="M1550.38,1992.82L1523.06,1992.82C1521.84,1992.82 1520.85,1991.83 1520.85,1990.61C1520.85,1989.39 1521.84,1988.4 1523.06,1988.4L1550.38,1988.4C1551.6,1988.4 1552.59,1989.39 1552.59,1990.61C1552.59,1991.83 1551.6,1992.82 1550.38,1992.82Z" style="fill-rule:nonzero;"/>
        <path d="M1641.4,1761.78C1623.86,1751.94 1603.08,1753.46 1586.67,1765.53C1575,1774.12 1556.58,1783.42 1527.67,1790.35C1507.94,1795.07 1494.53,1801.58 1485.45,1808.51C1470.1,1820.23 1477.58,1847.35 1496.11,1847.35L1648.59,1847.35L1655.19,1761.73L1641.4,1761.78Z" style="fill:white;fill-rule:nonzero;"/>
        <path d="M1617.05,1757.58C1606.91,1757.58 1596.76,1760.86 1587.98,1767.31C1573.46,1778 1553.34,1786.47 1528.18,1792.5C1510.67,1796.69 1496.74,1802.68 1486.79,1810.27C1479.17,1816.09 1478.18,1825.86 1480.58,1832.96C1482.57,1838.85 1487.69,1845.14 1496.11,1845.14L1646.55,1845.14L1652.8,1763.95L1641.41,1763.99L1641.4,1763.99C1641.02,1763.99 1640.65,1763.89 1640.32,1763.71C1633.01,1759.61 1625.03,1757.58 1617.05,1757.58ZM1648.59,1849.56L1496.11,1849.56C1487.11,1849.56 1479.55,1843.74 1476.39,1834.38C1473.48,1825.78 1474.74,1813.9 1484.11,1806.76C1494.55,1798.78 1509.04,1792.54 1527.15,1788.2C1551.73,1782.31 1571.31,1774.08 1585.36,1763.75C1602.3,1751.29 1623.93,1749.71 1641.97,1759.57L1655.18,1759.52L1655.19,1759.52C1655.8,1759.52 1656.39,1759.78 1656.81,1760.23C1657.23,1760.68 1657.44,1761.29 1657.39,1761.9L1650.8,1847.52C1650.71,1848.67 1649.75,1849.56 1648.59,1849.56Z" style="fill-rule:nonzero;"/>
        <path d="M1532.08,1831.88L1498.09,1831.88C1496.87,1831.88 1495.88,1830.89 1495.88,1829.66C1495.88,1828.44 1496.87,1827.45 1498.09,1827.45L1532.08,1827.45C1533.3,1827.45 1534.29,1828.44 1534.29,1829.66C1534.29,1830.89 1533.3,1831.88 1532.08,1831.88Z" style="fill-rule:nonzero;"/>
        <path d="M1716.19,1761.78C1698.65,1751.94 1677.87,1753.46 1661.46,1765.53C1649.79,1774.12 1631.37,1783.42 1602.46,1790.35C1564.23,1799.51 1549.72,1815.36 1544.46,1828.03C1540.73,1837.03 1546.52,1847.35 1555.32,1847.35L1715.07,1847.35C1727.33,1847.35 1736.45,1834.57 1733.84,1821.05L1723.14,1765.68L1716.19,1761.78Z" style="fill:white;fill-rule:nonzero;"/>
        <path d="M1691.84,1757.58C1681.69,1757.58 1671.55,1760.86 1662.77,1767.31C1648.24,1778 1628.13,1786.47 1602.97,1792.5C1565,1801.6 1551.31,1817.3 1546.5,1828.87C1544.88,1832.77 1545.3,1837.32 1547.59,1840.75C1549.45,1843.54 1552.27,1845.14 1555.32,1845.14L1715.07,1845.14C1719.79,1845.14 1724.17,1842.98 1727.41,1839.05C1731.3,1834.35 1732.89,1827.77 1731.67,1821.47L1721.16,1767.11L1715.11,1763.71C1707.8,1759.61 1699.82,1757.58 1691.84,1757.58ZM1715.07,1849.56L1555.32,1849.56C1550.77,1849.56 1546.61,1847.25 1543.91,1843.21C1540.81,1838.57 1540.24,1832.43 1542.42,1827.18C1547.62,1814.66 1562.16,1797.73 1601.94,1788.2C1626.52,1782.31 1646.1,1774.08 1660.15,1763.75C1677.25,1751.17 1699.14,1749.68 1717.27,1759.85L1724.22,1763.75C1724.79,1764.07 1725.19,1764.62 1725.31,1765.26L1736.01,1820.63C1737.48,1828.22 1735.54,1836.15 1730.82,1841.87C1726.73,1846.83 1721.13,1849.56 1715.07,1849.56Z" style="fill-rule:nonzero;"/>
        <path d="M1706.45,1831.88L1569.43,1831.88C1568.21,1831.88 1567.22,1830.89 1567.22,1829.66C1567.22,1828.44 1568.21,1827.45 1569.43,1827.45L1706.45,1827.45C1707.68,1827.45 1708.67,1828.44 1708.67,1829.66C1708.67,1830.89 1707.68,1831.88 1706.45,1831.88Z" style="fill-rule:nonzero;"/>
        <path d="M2129.26,1513.26C2129.26,1513.26 2111.4,1490.81 2023.74,1428.8C1936.08,1366.79 1771.66,1325.69 1721.14,1328.04C1652.19,1331.25 1653.79,1416.53 1653.79,1467.55C1653.79,1542.12 1582.15,1768.82 1582.15,1768.82C1594.08,1777.37 1628.6,1784.63 1675,1788.71C1675,1788.71 1807.74,1638.34 1790.9,1494.01C1790.9,1494.01 1853.76,1599.98 1935.39,1628.79C1949.44,1633.75 1995.43,1632.78 2035.7,1630.98C2078.659,1629.05 2114.65,1597.95 2122.98,1555.77C2125.39,1543.57 2127.56,1529.48 2129.26,1513.26Z" style="fill-rule:nonzero;"/>
        <path d="M1771.65,1441.09C1771.65,1441.09 1818.7,1647.23 1739.12,1788.71L1668.37,1788.71L1771.65,1441.09Z" style="fill-rule:nonzero;"/>
        <path d="M1692.14,1777.15C1691.89,1777.15 1691.63,1777.11 1691.38,1777.02C1690.24,1776.6 1689.64,1775.33 1690.06,1774.19C1705.53,1731.57 1733.92,1646.63 1750.33,1556.64C1750.55,1555.44 1751.7,1554.64 1752.9,1554.87C1754.1,1555.08 1754.9,1556.23 1754.68,1557.44C1738.21,1647.74 1709.73,1732.94 1694.22,1775.7C1693.89,1776.6 1693.04,1777.15 1692.14,1777.15Z" style="fill:white;fill-rule:nonzero;"/>
        <path d="M2062.08,886.754C2083.78,903.553 2071.909,918.916 2100.29,958.181C2121.14,987.024 2138.31,993.621 2138.37,1012.96C2138.42,1030.38 2124.55,1043.36 2115.38,1051.93C2073.79,1090.85 2014.61,1088.81 1978.28,1087.56C1948.88,1086.55 1908.58,1085.16 1902.46,1066.98C1896.42,1049.02 1930.69,1035.37 1932.57,999.476C1934.09,970.597 1912.76,963.232 1916.63,937.553C1921.63,904.326 1961.93,886.143 1968.4,883.225C1994.34,871.523 2035.37,866.067 2062.08,886.754Z" style="fill-rule:nonzero;"/>
        <path d="M2021.04,879.204C2021.04,879.204 2019.69,822.707 2065.95,829.292C2112.2,835.877 2078.61,888.927 2046.44,898.614C2014.27,908.301 2021.04,879.204 2021.04,879.204Z" style="fill-rule:nonzero;"/>
        <path d="M2070.73,1048.98C2078.37,1049.57 2085.679,1052.41 2091.62,1057.25C2106.92,1069.75 2134.11,1096.78 2145.31,1138.12C2166.22,1215.32 2178.73,1426.74 2137.59,1531.83C2134.73,1539.12 2125.97,1542.04 2119.37,1537.81C2056.36,1494.69 2105.35,1468.46 1942.51,1386.36C1953.56,1295.71 1896.35,1208.54 1920.4,1147.59C1929.56,1124.38 1944.29,1093.01 1964.61,1073.53C1995.86,1043.58 2048.78,1047.3 2070.73,1048.98Z" style="fill:white;fill-rule:nonzero;"/>
        <path d="M2120.58,1535.96C2123.14,1537.59 2126.26,1537.99 2129.15,1537.05C2132.07,1536.1 2134.4,1533.91 2135.53,1531.03C2176.64,1426.03 2163.67,1214.36 2143.18,1138.7C2132.13,1097.93 2105.26,1071.25 2090.22,1058.97C2084.669,1054.44 2077.87,1051.75 2070.56,1051.19C2050.44,1049.65 1996.99,1045.56 1966.14,1075.13C1950.38,1090.24 1935.68,1114.9 1922.45,1148.4C1910.21,1179.44 1919.78,1218.68 1929.92,1260.22C1939.25,1298.43 1949.81,1341.69 1944.88,1385.08C2047.85,1437.18 2065.659,1466.74 2081.379,1492.83C2090.35,1507.71 2098.09,1520.55 2120.58,1535.96ZM2126.02,1541.97C2123.28,1541.97 2120.58,1541.2 2118.21,1539.69C2118.18,1539.67 2118.15,1539.65 2118.12,1539.63C2094.81,1523.68 2086.45,1509.8 2077.6,1495.11C2062.11,1469.41 2044.57,1440.29 1941.51,1388.33C1940.68,1387.91 1940.2,1387.01 1940.31,1386.09C1945.57,1342.98 1935.43,1301.44 1925.62,1261.27C1915.32,1219.03 1905.58,1179.13 1918.34,1146.78C1931.8,1112.68 1946.85,1087.49 1963.08,1071.94C1995.36,1041 2050.23,1045.2 2070.889,1046.78C2079.11,1047.41 2086.76,1050.44 2093.01,1055.54C2108.46,1068.16 2136.08,1095.58 2147.45,1137.54C2168.07,1213.69 2181.08,1426.81 2139.65,1532.64C2138.03,1536.76 2134.7,1539.9 2130.51,1541.26C2129.04,1541.74 2127.52,1541.97 2126.02,1541.97Z" style="fill-rule:nonzero;"/>
        <path d="M1845.22,1133.25L1824.21,1078.05L1799.11,1077.13L1749,1141.27L1747,1149.29L1809.94,1266.75L1887.71,1275.98L1885.71,1222.25L1864.86,1132.85L1845.22,1133.25Z" style="fill-rule:nonzero;"/>
        <path d="M1824.21,1078.05L1787.49,1130.85L1845.62,1132.05L1824.21,1078.05Z" style="fill:white;fill-rule:nonzero;"/>
        <path d="M1791.66,1128.73L1842.34,1129.77L1823.67,1082.69L1791.66,1128.73ZM1845.62,1134.26L1845.57,1134.26L1787.44,1133.06C1786.63,1133.04 1785.89,1132.58 1785.52,1131.85C1785.15,1131.13 1785.21,1130.26 1785.67,1129.59L1822.4,1076.79C1822.86,1076.12 1823.65,1075.74 1824.46,1075.85C1825.27,1075.95 1825.97,1076.48 1826.27,1077.23L1847.67,1131.24C1847.95,1131.92 1847.86,1132.7 1847.43,1133.31C1847.02,1133.91 1846.34,1134.26 1845.62,1134.26Z" style="fill-rule:nonzero;"/>
        <path d="M1868.07,1146.29C1867.11,1146.29 1866.22,1145.66 1865.94,1144.69L1863.19,1135.05L1777.44,1134.26C1776.22,1134.25 1775.24,1133.25 1775.25,1132.03C1775.26,1130.82 1776.25,1129.84 1777.46,1129.84L1777.48,1129.84L1864.88,1130.64C1865.86,1130.65 1866.72,1131.3 1866.99,1132.25L1870.19,1143.47C1870.53,1144.65 1869.85,1145.87 1868.68,1146.21C1868.47,1146.26 1868.27,1146.29 1868.07,1146.29Z" style="fill-rule:nonzero;"/>
        <path d="M1891.32,1278.19C1891.24,1278.19 1891.16,1278.18 1891.07,1278.17L1809.69,1268.95C1808.96,1268.87 1808.32,1268.43 1807.98,1267.78L1747.2,1151.57C1745,1147.36 1745.46,1142.23 1748.37,1138.48L1802.98,1068.16C1803.73,1067.19 1805.12,1067.02 1806.08,1067.77C1807.05,1068.51 1807.22,1069.9 1806.47,1070.87L1751.86,1141.19C1750.01,1143.57 1749.71,1146.84 1751.11,1149.52L1811.35,1264.69L1891.57,1273.78C1892.78,1273.92 1893.65,1275.01 1893.52,1276.22C1893.39,1277.35 1892.43,1278.19 1891.32,1278.19Z" style="fill-rule:nonzero;"/>
        <path d="M1849.93,1154.03C1849.45,1154.03 1848.97,1153.88 1848.56,1153.56C1847.61,1152.8 1847.44,1151.41 1848.2,1150.46L1863.12,1131.49C1863.88,1130.53 1865.27,1130.37 1866.23,1131.12C1867.19,1131.87 1867.35,1133.26 1866.6,1134.22L1851.67,1153.19C1851.23,1153.74 1850.59,1154.03 1849.93,1154.03Z" style="fill-rule:nonzero;"/>
        <path d="M2114.76,1223.99C2114.76,1223.99 2073.389,1235.55 2036.45,1216.24L2035.65,1278.78C2035.65,1278.78 1943.27,1250.13 1919.21,1233.3C1895.16,1216.46 1913.07,1157.68 1868.07,1144.08C1868.07,1144.08 1877.69,1171.34 1873.68,1174.55C1869.67,1177.75 1857.64,1179.36 1844.01,1170.54C1830.38,1161.72 1805.53,1149.69 1788.69,1153.7C1771.85,1157.71 1797.94,1222.49 1838.4,1236.29C1889.76,1253.8 1980.36,1369.36 2053.85,1389.35C2071.87,1394.25 2090.629,1385.75 2098.63,1368.88C2102.99,1359.7 2106.87,1347.12 2108.61,1330.1C2113.15,1285.73 2114.76,1223.99 2114.76,1223.99Z" style="fill:white;fill-rule:nonzero;"/>
        <path d="M1795.99,1155.11C1793.59,1155.11 1791.32,1155.35 1789.2,1155.85C1787.08,1156.36 1785.91,1158.53 1785.73,1162.32C1784.89,1179.93 1807.39,1223.38 1839.12,1234.19C1862.16,1242.05 1893.06,1269.38 1925.77,1298.31C1967.04,1334.8 2013.81,1376.17 2054.429,1387.21C2071.389,1391.82 2089.139,1383.72 2096.639,1367.93C2101.61,1357.46 2104.9,1344.65 2106.41,1329.87C2110.34,1291.53 2112.08,1239.55 2112.46,1226.83C2102.63,1229.03 2069.79,1234.59 2038.61,1219.79L2037.86,1278.81C2037.85,1279.51 2037.51,1280.16 2036.94,1280.57C2036.38,1280.98 2035.66,1281.1 2034.99,1280.89C2031.2,1279.72 1942,1251.95 1917.94,1235.11C1907.32,1227.67 1904.42,1213.11 1901.36,1197.69C1897.32,1177.38 1893.15,1156.42 1871.64,1147.68C1875.67,1159.83 1878.92,1173.19 1875.06,1176.27C1870.19,1180.18 1856.96,1181.55 1842.81,1172.39C1829.68,1163.89 1810.67,1155.11 1795.99,1155.11ZM2064.03,1392.92C2060.47,1392.92 2056.85,1392.46 2053.27,1391.48C2011.66,1380.16 1964.47,1338.43 1922.84,1301.62C1890.47,1272.99 1859.89,1245.95 1837.69,1238.38C1803.58,1226.75 1780.4,1181.33 1781.31,1162.11C1781.69,1154.25 1785.77,1152.12 1788.18,1151.55C1804.66,1147.61 1829.21,1158.32 1845.21,1168.68C1858.56,1177.32 1869.4,1175.14 1872.3,1172.82C1873.47,1170.87 1870.63,1157.99 1865.98,1144.82C1865.71,1144.03 1865.89,1143.16 1866.47,1142.55C1867.05,1141.95 1867.91,1141.72 1868.71,1141.96C1896.46,1150.35 1901.36,1175.04 1905.69,1196.83C1908.58,1211.35 1911.3,1225.06 1920.48,1231.48C1941.63,1246.29 2017.79,1270.82 2033.47,1275.78L2034.24,1216.21C2034.25,1215.44 2034.65,1214.74 2035.31,1214.34C2035.97,1213.95 2036.79,1213.93 2037.47,1214.28C2073.22,1232.97 2113.76,1221.98 2114.16,1221.86C2114.84,1221.67 2115.56,1221.82 2116.11,1222.25C2116.67,1222.68 2116.98,1223.35 2116.97,1224.05C2116.95,1224.67 2115.31,1286.38 2110.81,1330.32C2109.24,1345.61 2105.82,1358.9 2100.63,1369.83C2093.8,1384.21 2079.389,1392.92 2064.03,1392.92Z" style="fill-rule:nonzero;"/>
        <path d="M1942.77,998.787C1941.07,996.102 1949.13,981.56 1949.41,976.263C1949.69,970.965 1945.55,966.526 1943.81,960.965C1942.08,955.404 1944.01,945.503 1944.01,945.503C1946.38,879.155 2018.66,894.901 2018.66,894.901C2035.26,899.921 2045.04,918.565 2048.23,930.965C2054.419,954.969 2043.02,983.996 2043.02,983.996C2043.5,985.085 2055.35,1062.78 2055.879,1063.79C2063.379,1078.22 2013.05,1087.66 1997.22,1073.13C1991.87,1068.21 1998.72,1032.12 1997.22,1032.08C1991.29,1031.92 1984.02,1038.29 1976.55,1036.3C1965.54,1033.38 1957.24,1005.8 1955.67,1003.75C1954.92,1002.78 1952.35,1002.21 1949.69,1001.6C1946.74,1000.93 1943.67,1000.2 1942.77,998.787Z" style="fill:white;fill-rule:nonzero;"/>
        <path d="M1944.76,997.863M1996.99,1029.87L1997.28,1029.87C1997.89,1029.89 1998.55,1030.2 1998.96,1030.67C1999.94,1031.79 1999.85,1032.98 1998.88,1042.01C1998.09,1049.39 1995.98,1068.99 1998.71,1071.5C2010.27,1082.11 2041.37,1078.85 2051.52,1071.07C2055.56,1067.97 2054.36,1065.67 2053.909,1064.81C2053.59,1064.17 2053.48,1063.96 2046.91,1022.1C2044.28,1005.32 2041.29,986.328 2040.91,984.659C2040.76,984.179 2040.77,983.659 2040.96,983.188C2041.07,982.903 2052.03,954.528 2046.09,931.518C2043.39,921.039 2034.44,901.982 2018.02,897.016C2017.86,896.986 1984.46,889.991 1963.45,906.33C1952.65,914.728 1946.85,927.932 1946.22,945.58C1946.22,945.696 1946.21,945.813 1946.18,945.925C1945.68,948.531 1944.64,956.195 1945.92,960.308C1946.52,962.236 1947.49,964.105 1948.42,965.915C1950.09,969.151 1951.82,972.497 1951.61,976.379C1951.47,979.119 1949.77,983.376 1947.97,987.882C1946.65,991.205 1944.67,996.162 1944.74,997.699C1945.55,998.39 1948.77,999.126 1950.18,999.45C1953.63,1000.24 1956.2,1000.82 1957.42,1002.41C1957.92,1003.06 1958.39,1004.19 1959.66,1007.37C1962.62,1014.79 1969.57,1032.16 1977.12,1034.17C1980.78,1035.14 1984.66,1033.62 1988.4,1032.14C1991.37,1030.97 1994.18,1029.87 1996.99,1029.87ZM2022.64,1082.55C2012.09,1082.55 2001.74,1080.27 1995.72,1074.75C1991.67,1071.03 1992.71,1058.08 1994.48,1041.54C1994.75,1039.02 1995.05,1036.28 1995.17,1034.51C1993.6,1034.85 1991.85,1035.54 1990.02,1036.25C1985.81,1037.91 1981.05,1039.78 1975.98,1038.44C1966.29,1035.87 1959.3,1018.39 1955.55,1009.01C1954.88,1007.34 1954.13,1005.44 1953.87,1005.05C1953.45,1004.73 1951.01,1004.17 1949.39,1003.8C1945.16,1002.83 1942.21,1002.02 1940.91,999.97C1939.43,997.645 1940.91,993.664 1943.87,986.243C1945.38,982.455 1947.09,978.158 1947.2,976.146C1947.34,973.46 1946.02,970.904 1944.49,967.942C1943.47,965.966 1942.42,963.922 1941.7,961.625C1939.93,955.958 1941.54,946.693 1941.81,945.253C1942.52,926.311 1948.89,912.036 1960.75,902.826C1983.42,885.22 2017.68,892.426 2019.13,892.739C2037.6,898.318 2047.44,919.042 2050.37,930.413C2056.24,953.162 2046.99,979.68 2045.31,984.179C2045.77,986.496 2046.98,994.048 2051.28,1021.42C2054.02,1038.9 2057.419,1060.55 2057.95,1062.99C2059.919,1067.03 2058.57,1071.24 2054.21,1074.58C2047.99,1079.35 2035.17,1082.55 2022.64,1082.55Z" style="fill-rule:nonzero;"/>
        <path d="M1935.14,908.829C1942.4,901.471 1951.95,892.249 1980.83,888.195C2004.85,884.823 1992.7,882.825 2010.88,885.826C2015.99,886.668 2025.12,888.175 2034.13,894.772C2047.49,904.542 2052.45,918.254 2055.09,928.483C2060.24,948.449 2053.79,971.725 2050.889,980.532C2050.169,982.698 2048.06,984.07 2045.79,983.88C2039.72,983.373 2034.37,982.572 2029.58,981.544C2027.31,981.056 2026.02,978.671 2026.89,976.516C2027.13,975.926 2027.34,975.316 2027.52,974.687C2029.92,966.266 2025.89,957.736 2018.51,955.637C2011.14,953.538 2003.22,958.663 2000.83,967.084C2000.66,967.668 2000.53,968.252 2000.42,968.835C1989.82,960.806 1984.37,951.714 1974.57,946.827C1973.39,946.24 1968.23,943.89 1960.38,943.612C1943.33,943.009 1937.66,953.109 1929.6,951.154C1915.52,947.741 1922.08,922.061 1935.14,908.829Z" style="fill-rule:nonzero;"/>
        <path d="M1995.48,1034.29C1994.54,1034.29 1993.67,1033.69 1993.38,1032.75C1993.01,1031.58 1993.66,1030.34 1994.82,1029.97C2018.07,1022.66 2021.63,1008.05 2021.77,1007.44C2022.04,1006.25 2023.21,1005.48 2024.41,1005.76C2025.6,1006.02 2026.35,1007.19 2026.09,1008.38C2025.94,1009.1 2022,1026.06 1996.15,1034.19C1995.93,1034.26 1995.7,1034.29 1995.48,1034.29Z" style="fill-rule:nonzero;"/>
        <path d="M414.968,2118.05L789.696,2118.05C816.251,2118.05 837.778,2096.52 837.778,2069.97L837.778,1803.22C837.778,1776.66 816.251,1755.14 789.696,1755.14L414.968,1755.14C388.414,1755.14 366.887,1776.66 366.887,1803.22L366.887,2069.97C366.887,2096.52 388.414,2118.05 414.968,2118.05Z" style="fill:white;fill-rule:nonzero;"/>
        <path d="M414.968,1757.35C389.675,1757.35 369.097,1777.92 369.097,1803.22L369.097,2069.97C369.097,2095.26 389.675,2115.84 414.968,2115.84L789.696,2115.84C814.989,2115.84 835.567,2095.26 835.567,2069.97L835.567,1803.22C835.567,1777.92 814.989,1757.35 789.696,1757.35L414.968,1757.35ZM789.696,2120.26L414.968,2120.26C387.237,2120.26 364.676,2097.7 364.676,2069.97L364.676,1803.22C364.676,1775.49 387.237,1752.92 414.968,1752.92L789.696,1752.92C817.428,1752.92 839.988,1775.49 839.988,1803.22L839.988,2069.97C839.988,2097.7 817.428,2120.26 789.696,2120.26Z" style="fill-rule:nonzero;"/>
        <path d="M375.329,1815.45L829.04,1815.45C837.384,1815.45 844.148,1808.68 844.148,1800.34L844.148,1770.16C844.148,1761.81 837.384,1755.05 829.04,1755.05L375.329,1755.05C366.985,1755.05 360.221,1761.81 360.221,1770.16L360.221,1800.34C360.221,1808.68 366.985,1815.45 375.329,1815.45Z" style="fill:white;fill-rule:nonzero;"/>
        <path d="M832.797,1817.66L371.572,1817.66C364.095,1817.66 358.011,1811.11 358.011,1803.07L358.011,1767.43C358.011,1759.38 364.095,1752.84 371.572,1752.84L655.342,1752.84C656.563,1752.84 657.553,1753.83 657.553,1755.05C657.553,1756.27 656.563,1757.26 655.342,1757.26L371.572,1757.26C366.532,1757.26 362.433,1761.82 362.433,1767.43L362.433,1803.07C362.433,1808.67 366.532,1813.24 371.572,1813.24L832.797,1813.24C834.018,1813.24 835.008,1814.23 835.008,1815.45C835.008,1816.67 834.018,1817.66 832.797,1817.66Z" style="fill-rule:nonzero;"/>
        <path d="M534.639,2109.99L534.603,2109.99C533.382,2109.97 532.408,2108.97 532.427,2107.75L536.856,1826.29C536.876,1825.07 537.925,1824.07 539.101,1824.11C540.322,1824.13 541.297,1825.13 541.277,1826.35L536.849,2107.82C536.829,2109.03 535.843,2109.99 534.639,2109.99Z" style="fill-rule:nonzero;"/>
        <path d="M809.791,2060.53C814.328,2055.94 840.545,1974.38 840.545,1974.38L892.353,2011.35L835.555,2087.68L809.791,2060.53Z" style="fill:white;fill-rule:nonzero;"/>
        <path d="M812.563,2060.24L835.35,2084.25L889.233,2011.84L841.722,1977.94C836.19,1995.08 818.608,2048.92 812.563,2060.24ZM835.555,2089.89C834.951,2089.89 834.37,2089.64 833.951,2089.2L808.186,2062.05C807.368,2061.19 807.378,2059.841 808.21,2058.99C811.433,2055.341 828.461,2004.75 838.44,1973.71C838.656,1973.03 839.18,1972.51 839.85,1972.28C840.519,1972.06 841.256,1972.17 841.829,1972.58L893.636,2009.55C894.12,2009.89 894.445,2010.42 894.537,2011C894.629,2011.59 894.481,2012.19 894.126,2012.67L837.329,2089C836.939,2089.52 836.339,2089.851 835.687,2089.89L835.555,2089.89Z" style="fill-rule:nonzero;"/>
        <path d="M903.151,2163.65L868.697,2163.45C845.902,2163.31 824.701,2151.73 812.27,2132.63L778.204,2078.69C768.79,2063.78 774.056,2044.04 789.624,2035.76C803.842,2028.21 818.74,2020.84 822.232,2021.17C829.321,2021.85 832.183,2055.38 832.183,2055.38L862.876,2056.56C862.876,2056.56 878.042,2119.62 891.383,2126.79C901.104,2132.01 907.889,2139.68 912.455,2146.68C917.235,2154.01 911.902,2163.71 903.151,2163.65Z" style="fill-rule:nonzero;"/>
        <path d="M899.688,2152.41C899.578,2152.41 899.466,2152.4 899.355,2152.39L852.229,2145.29C840.963,2143.59 831.147,2137.01 825.297,2127.24L783.656,2057.67C783.029,2056.621 783.37,2055.27 784.417,2054.64C785.469,2054.02 786.824,2054.351 787.449,2055.4L829.09,2124.97C834.26,2133.6 842.933,2139.42 852.887,2140.92L900.014,2148.01C901.221,2148.2 902.053,2149.32 901.871,2150.53C901.705,2151.62 900.763,2152.41 899.688,2152.41Z" style="fill:white;fill-rule:nonzero;"/>
        <path d="M841.517,2100.09C840.544,2100.09 839.653,2099.45 839.385,2098.46C839.064,2097.29 839.758,2096.071 840.938,2095.75L867.191,2088.601C868.369,2088.27 869.583,2088.97 869.905,2090.15C870.226,2091.331 869.532,2092.54 868.353,2092.871L842.099,2100.02C841.904,2100.07 841.709,2100.09 841.517,2100.09Z" style="fill:white;fill-rule:nonzero;"/>
        <path d="M855.191,2113.58C854.196,2113.58 853.292,2112.9 853.046,2111.89C852.755,2110.71 853.482,2109.51 854.667,2109.22L872.271,2104.91C873.454,2104.63 874.654,2105.35 874.944,2106.54C875.234,2107.72 874.508,2108.92 873.323,2109.21L855.719,2113.52C855.542,2113.56 855.364,2113.58 855.191,2113.58Z" style="fill:white;fill-rule:nonzero;"/>
        <path d="M668.183,1622.08C668.183,1622.08 943.075,1590.08 1024.819,1660.84C1106.56,1731.6 895.781,2035.88 895.781,2035.88L829.125,1986.44L892.353,1771.38L638.243,1699.21L668.183,1622.08Z" style="fill:white;fill-rule:nonzero;"/>
        <path d="M831.681,1985.59L895.253,2032.73C912.767,2006.98 1099.39,1728.31 1023.37,1662.51C946.174,1595.68 690.523,1621.87 669.759,1624.12L641.183,1697.75L892.957,1769.25C893.524,1769.42 894.003,1769.79 894.288,1770.31C894.573,1770.83 894.64,1771.44 894.474,1772L831.681,1985.59ZM895.781,2038.09C895.309,2038.09 894.847,2037.94 894.464,2037.65L827.808,1988.22C827.063,1987.67 826.742,1986.71 827.003,1985.82L889.602,1772.9L637.639,1701.34C637.041,1701.17 636.542,1700.76 636.265,1700.2C635.987,1699.64 635.957,1698.99 636.183,1698.42L666.122,1621.27C666.417,1620.51 667.113,1619.97 667.927,1619.88C679.193,1618.57 944.726,1588.58 1026.26,1659.17C1061.03,1689.26 1049.81,1762.17 992.929,1875.88C950.869,1959.96 898.127,2036.37 897.599,2037.13C897.258,2037.63 896.731,2037.96 896.141,2038.06C896.021,2038.08 895.901,2038.09 895.781,2038.09Z" style="fill-rule:nonzero;"/>
        <path d="M1026.49,1220L954.872,1258.66C954.872,1258.66 910.975,1373.14 848.136,1380.04C785.296,1386.93 723.138,1300.02 723.138,1300.02L681.426,1389.26C681.426,1389.26 742.675,1483.97 839.807,1468.7C936.939,1453.44 963.41,1307.53 963.41,1307.53C963.364,1307.63 986.401,1309.81 995.079,1287.38C1002.47,1268.28 999.382,1257.04 999.382,1257.04C999.382,1257.04 1033.89,1238.62 1026.49,1220Z" style="fill:white;fill-rule:nonzero;"/>
        <path d="M683.959,1389.06C690.899,1399.11 750.249,1480.56 839.464,1466.52C933.915,1451.68 960.972,1308.58 961.234,1307.13C961.401,1306.21 962.129,1305.5 963.051,1305.35C963.314,1305.31 963.579,1305.31 963.834,1305.36C964.944,1305.46 985.211,1306.75 993.017,1286.58C1000,1268.53 997.275,1257.72 997.247,1257.62C996.984,1256.63 997.435,1255.58 998.34,1255.09C998.652,1254.93 1027.939,1239.06 1025.13,1223.25L956.639,1260.22C952.35,1271.14 909.81,1375.5 848.377,1382.24C790.968,1388.5 735.417,1319.95 723.57,1304.31L683.959,1389.06ZM818.91,1472.56C733.726,1472.56 680.143,1391.35 679.569,1390.46C679.155,1389.82 679.101,1389.02 679.423,1388.33L721.136,1299.08C721.469,1298.37 722.154,1297.89 722.936,1297.82C723.724,1297.74 724.479,1298.09 724.937,1298.73C725.551,1299.59 787.088,1384.56 847.896,1377.84C908.69,1371.17 952.375,1259 952.809,1257.87C952.998,1257.37 953.357,1256.96 953.822,1256.71L1025.439,1218.06C1025.99,1217.76 1026.65,1217.7 1027.24,1217.92C1027.839,1218.14 1028.31,1218.6 1028.54,1219.19C1035.75,1237.32 1008.6,1254.31 1001.86,1258.19C1002.46,1262.16 1003.13,1272.7 997.141,1288.18C990.867,1304.39 977.497,1308.5 970.088,1309.51C967.958,1309.8 966.364,1309.86 965.198,1309.88C963.522,1317.99 956.245,1350.16 940.019,1383.36C915.144,1434.26 880.61,1464.53 840.15,1470.89C832.872,1472.03 825.787,1472.56 818.91,1472.56Z" style="fill-rule:nonzero;"/>
        <path d="M961.368,1297.55C960.424,1297.55 959.552,1296.95 959.257,1296C958.897,1294.83 959.55,1293.6 960.713,1293.23C960.834,1293.19 972.762,1289.37 974.089,1279.76C975.009,1273.12 978.846,1268.1 981.903,1265.06C984.62,1262.35 986.167,1258.77 986.289,1254.93L965.174,1263.35C964.036,1263.81 962.753,1263.25 962.301,1262.12C961.849,1260.98 962.402,1259.7 963.535,1259.24L987.688,1249.61C988.369,1249.34 989.138,1249.43 989.747,1249.84C990.354,1250.25 990.718,1250.93 990.718,1251.67L990.718,1254.44C990.718,1259.65 988.695,1264.54 985.022,1268.19C982.447,1270.76 979.219,1274.95 978.47,1280.37C976.752,1292.79 962.619,1297.27 962.018,1297.46C961.802,1297.52 961.583,1297.55 961.368,1297.55Z" style="fill-rule:nonzero;"/>
        <path d="M393.834,1450.14C393.834,1450.14 399.33,1397.67 402.826,1362.93C410.587,1285.83 498.152,1260.36 498.152,1260.36L498.243,1260.88C498.688,1260.76 499.117,1260.62 499.572,1260.51C531.068,1253.11 544.207,1253.01 658.693,1257.16C661.172,1257.25 663.692,1257.62 666.228,1258.21C719.251,1264.26 779.392,1340.01 779.392,1340.01C837.016,1363.49 887.273,1345.93 933.283,1304.68L958.825,1329.27C930.292,1471.86 842.658,1505.27 703.528,1443.55C704.08,1487.99 713.984,1537.86 744.967,1582.34C755.135,1596.94 768.957,1612.95 787.934,1628.3C777.271,1636.93 728.107,1632.01 705.859,1638.62C668.921,1649.59 675.081,1641.52 645.314,1642.41C566.572,1644.75 545.565,1744.8 494.706,1733.78C481.127,1730.84 463.127,1720.25 446.252,1684.72C436.688,1655.26 428.176,1620.66 423.438,1581.56C417.613,1533.51 418.763,1489.13 423.495,1449.78L393.834,1450.14Z" style="fill-rule:nonzero;"/>
        <path d="M510.415,1471.18C492.44,1595.1 427.336,1618.38 375.135,1595.1C328.78,1553.48 360.3,1421.04 397.839,1367.12C401.54,1379.28 435.049,1419.15 433.788,1450.05C432,1493.86 441.356,1512.49 463.43,1468.34L510.415,1471.18Z" style="fill-rule:nonzero;"/>
        <path d="M831.686,1439.71C848.135,1446.62 862.232,1456.67 873.69,1468.88C882.115,1477.86 895.093,1480.86 906.641,1476.02C947.455,1458.91 994.32,1458.37 1036.48,1478.46C1116.98,1516.83 1134.81,1610.73 1094.86,1694.54C1054.92,1778.35 972.324,1820.34 891.826,1781.97C859.594,1766.61 834.998,1741.52 819.655,1711.57C813.195,1698.96 800.053,1691.69 785.999,1692.83C764.916,1694.54 743.292,1690.93 723.043,1681.28C658.752,1650.64 623.13,1584.52 666.485,1504.29C720.889,1403.6 770.345,1413.93 831.686,1439.71Z" style="fill-rule:nonzero;"/>
        <path d="M831.154,1423.27C847.604,1430.18 861.701,1440.23 873.159,1452.44C881.583,1461.42 894.562,1464.42 906.109,1459.58C946.924,1442.47 993.789,1441.93 1035.949,1462.03C1116.45,1500.39 1134.28,1594.29 1094.33,1678.1C1054.39,1761.91 971.792,1803.9 891.295,1765.53C859.063,1750.17 834.467,1725.08 819.124,1695.13C812.664,1682.53 799.521,1675.25 785.467,1676.39C764.384,1678.1 742.762,1674.5 722.512,1664.85C658.221,1634.2 622.599,1568.09 665.954,1487.85C720.358,1387.16 769.814,1397.49 831.154,1423.27Z" style="fill:white;fill-rule:nonzero;"/>
        <path d="M788.314,1674.07C802.087,1674.07 814.729,1681.71 821.091,1694.12C836.834,1724.85 861.44,1748.85 892.246,1763.54C968.493,1799.87 1050.77,1764.36 1092.34,1677.15C1134.15,1589.42 1110.04,1499.79 1035,1464.02C995.218,1445.06 948.549,1444.19 906.964,1461.62C894.658,1466.78 880.757,1463.77 871.547,1453.95C859.92,1441.56 846.042,1431.93 830.298,1425.31C797.081,1411.35 771.479,1403.97 746.494,1410.28C717.959,1417.49 692.984,1442.47 667.9,1488.9C648.96,1523.95 644.256,1558.74 654.294,1589.51C664.35,1620.34 688.915,1646.38 723.463,1662.85C742.642,1671.99 764.021,1675.92 785.29,1674.19C786.302,1674.11 787.311,1674.07 788.314,1674.07ZM952.385,1782.14C931.657,1782.14 910.771,1777.26 890.344,1767.53C858.654,1752.42 833.345,1727.74 817.155,1696.14C811.149,1684.42 798.772,1677.51 785.646,1678.6C763.602,1680.39 741.442,1676.32 721.562,1666.84C685.908,1649.85 660.526,1622.87 650.091,1590.88C639.668,1558.93 644.48,1522.94 664.009,1486.8C719.552,1384 770.794,1395.51 832.01,1421.23C848.33,1428.09 862.717,1438.08 874.771,1450.93C882.706,1459.38 894.669,1461.98 905.254,1457.54C947.999,1439.62 995.981,1440.53 1036.9,1460.03C1114.25,1496.9 1139.24,1589.01 1096.33,1679.05C1076.34,1721 1045.3,1753.17 1008.93,1769.65C990.549,1777.98 971.535,1782.14 952.385,1782.14Z" style="fill-rule:nonzero;"/>
        <path d="M757.538,1553.84L778.299,1509.33L443.898,1353.34L423.137,1397.84L757.538,1553.84Z" style="fill:white;fill-rule:nonzero;"/>
        <path d="M461.322,1362.05L438.446,1337.04L354.916,1313.12C336.265,1321.78 330.102,1337.75 332.679,1358.85L407.583,1406.37L440.514,1404.05L461.322,1362.05Z" style="fill:white;fill-rule:nonzero;"/>
        <path d="M334.755,1357.55L408.154,1404.12L439.096,1401.93L458.668,1362.42L437.237,1338.99L355.109,1315.48C339.174,1323.19 332.507,1336.97 334.755,1357.55ZM407.583,1408.58C407.165,1408.58 406.754,1408.46 406.399,1408.24L331.496,1360.71C330.937,1360.36 330.566,1359.77 330.485,1359.12C327.638,1335.82 335.545,1319.68 353.986,1311.12C354.466,1310.89 355.012,1310.84 355.525,1311L439.055,1334.92C439.447,1335.03 439.802,1335.25 440.077,1335.55L462.953,1360.56C463.569,1361.23 463.708,1362.21 463.303,1363.03L442.495,1405.03C442.147,1405.73 441.452,1406.2 440.669,1406.25L407.739,1408.58L407.583,1408.58Z" style="fill-rule:nonzero;"/>
        <path d="M344.272,1378.66C346.007,1376.59 345.738,1373.51 343.67,1371.77L343.125,1371.32C341.058,1369.58 337.975,1369.85 336.239,1371.92C334.504,1373.99 334.774,1377.07 336.842,1378.81L337.386,1379.26C339.454,1381 342.537,1380.73 344.272,1378.66Z" style="fill-rule:nonzero;"/>
        <path d="M338.81,1373.5L341.702,1375.94L353.086,1362.44L350.193,1360L338.81,1373.5Z" style="fill-rule:nonzero;"/>
        <path d="M362.9,1392.75C364.635,1390.68 364.365,1387.59 362.297,1385.86L361.753,1385.4C359.685,1383.67 356.603,1383.94 354.867,1386C353.132,1388.07 353.402,1391.16 355.47,1392.89L356.014,1393.35C358.082,1395.08 361.165,1394.81 362.9,1392.75Z" style="fill-rule:nonzero;"/>
        <path d="M357.438,1387.58L360.33,1390.02L371.714,1376.52L368.821,1374.08L357.438,1387.58Z" style="fill-rule:nonzero;"/>
        <path d="M383.408,1409.53C385.143,1407.46 384.873,1404.38 382.805,1402.64L382.261,1402.19C380.193,1400.45 377.11,1400.72 375.375,1402.79C373.64,1404.86 373.91,1407.94 375.978,1409.67L376.522,1410.13C378.59,1411.87 381.673,1411.6 383.408,1409.53Z" style="fill:white;fill-rule:nonzero;"/>
        <path d="M377.945,1404.37L380.838,1406.8L392.222,1393.31L389.329,1390.87L377.945,1404.37Z" style="fill:white;fill-rule:nonzero;"/>
        <path d="M379.562,1304.97C378.597,1307.5 375.772,1308.76 373.25,1307.79L372.587,1307.54C370.065,1306.58 368.804,1303.75 369.768,1301.23C370.732,1298.71 373.558,1297.45 376.079,1298.41L376.743,1298.66C379.264,1299.63 380.526,1302.45 379.562,1304.97Z" style="fill-rule:nonzero;"/>
        <path d="M372.396,1302.67L375.934,1304.05L369.666,1320.56L366.128,1319.18L372.396,1302.67Z" style="fill-rule:nonzero;"/>
        <path d="M403.528,1312.63C402.563,1315.16 399.738,1316.42 397.216,1315.45L396.553,1315.2C394.032,1314.24 392.77,1311.41 393.734,1308.89C394.698,1306.37 397.524,1305.11 400.045,1306.07L400.708,1306.32C403.23,1307.29 404.492,1310.11 403.528,1312.63Z" style="fill-rule:nonzero;"/>
        <path d="M396.362,1310.37L399.899,1311.71L393.631,1328.22L390.093,1326.88L396.362,1310.37Z" style="fill-rule:nonzero;"/>
        <path d="M432.291,1321.03C431.326,1323.55 428.5,1324.82 425.979,1323.85L425.315,1323.6C422.794,1322.63 421.532,1319.81 422.497,1317.29C423.461,1314.76 426.287,1313.5 428.808,1314.47L429.472,1314.72C431.993,1315.68 433.255,1318.51 432.291,1321.03Z" style="fill:white;fill-rule:nonzero;"/>
        <path d="M425.125,1318.77L428.662,1320.11L422.394,1336.62L418.856,1335.27L425.125,1318.77Z" style="fill:white;fill-rule:nonzero;"/>
        <path d="M779.269,1489.57C766.013,1489.57 753.42,1494.45 743.576,1503.46C733.137,1513.01 727.042,1526.05 726.413,1540.19C725.114,1569.36 747.795,1594.16 776.972,1595.46C806.169,1596.76 830.942,1574.07 832.241,1544.89C832.871,1530.76 827.958,1517.23 818.408,1506.79C808.858,1496.35 795.815,1490.25 781.682,1489.63C780.876,1489.59 780.07,1489.57 779.269,1489.57ZM779.355,1599.93C778.5,1599.93 777.64,1599.91 776.775,1599.87C745.163,1598.46 720.589,1571.6 721.996,1539.99C722.677,1524.67 729.281,1510.54 740.592,1500.2C751.902,1489.85 766.565,1484.51 781.878,1485.21C797.191,1485.89 811.324,1492.49 821.67,1503.8C832.017,1515.11 837.339,1529.78 836.658,1545.09C835.29,1575.84 809.836,1599.93 779.355,1599.93Z" style="fill-rule:nonzero;"/>
        <path d="M730.477,1540.98C729.292,1567.6 749.917,1590.15 776.542,1591.33C803.168,1592.52 825.713,1571.89 826.897,1545.27C828.083,1518.64 807.458,1496.1 780.833,1494.91C754.207,1493.73 731.662,1514.35 730.477,1540.98Z" style="fill-rule:nonzero;"/>
        <path d="M979.666,1611.44C979.348,1611.44 979.025,1611.37 978.719,1611.22L825.544,1538.5C824.441,1537.98 823.971,1536.66 824.495,1535.56C825.018,1534.45 826.341,1533.99 827.439,1534.51L980.615,1607.23C981.718,1607.75 982.188,1609.07 981.664,1610.17C981.286,1610.97 980.493,1611.44 979.666,1611.44Z" style="fill-rule:nonzero;"/>
        <path d="M826.491,1538.72C826.172,1538.72 825.85,1538.65 825.544,1538.5L755.221,1505.12C754.117,1504.59 753.648,1503.28 754.171,1502.17C754.695,1501.07 756.014,1500.6 757.116,1501.12L827.439,1534.51C828.543,1535.04 829.012,1536.35 828.489,1537.46C828.111,1538.25 827.317,1538.72 826.491,1538.72Z" style="fill:white;fill-rule:nonzero;"/>
        <path d="M756.167,1505.33C755.849,1505.33 755.526,1505.26 755.221,1505.12L416.741,1344.43C415.638,1343.9 415.168,1342.58 415.691,1341.48C416.214,1340.38 417.535,1339.91 418.636,1340.43L757.116,1501.12C758.219,1501.65 758.689,1502.97 758.166,1504.07C757.788,1504.87 756.994,1505.33 756.167,1505.33Z" style="fill-rule:nonzero;"/>
        <path d="M979.077,1624.67C978.757,1624.67 978.433,1624.6 978.125,1624.45L824.716,1551.25C823.614,1550.72 823.147,1549.4 823.673,1548.3C824.199,1547.2 825.518,1546.73 826.62,1547.26L980.03,1620.46C981.132,1620.99 981.598,1622.31 981.072,1623.41C980.693,1624.2 979.901,1624.67 979.077,1624.67Z" style="fill-rule:nonzero;"/>
        <path d="M825.667,1551.46C825.348,1551.46 825.024,1551.39 824.716,1551.25L744.438,1512.94C743.335,1512.42 742.869,1511.09 743.395,1509.99C743.921,1508.89 745.239,1508.42 746.342,1508.95L826.62,1547.26C827.722,1547.78 828.188,1549.1 827.663,1550.2C827.284,1551 826.492,1551.46 825.667,1551.46Z" style="fill:white;fill-rule:nonzero;"/>
        <path d="M745.389,1513.16C745.069,1513.16 744.746,1513.09 744.438,1512.94L390.862,1344.22C389.76,1343.7 389.294,1342.38 389.82,1341.27C390.346,1340.17 391.665,1339.71 392.767,1340.23L746.342,1508.95C747.444,1509.48 747.91,1510.8 747.385,1511.9C747.006,1512.69 746.213,1513.16 745.389,1513.16Z" style="fill-rule:nonzero;"/>
        <path d="M974.876,1633.95C974.557,1633.95 974.232,1633.88 973.924,1633.73L821.771,1561.06C820.67,1560.53 820.203,1559.21 820.729,1558.11C821.255,1557.01 822.577,1556.54 823.678,1557.07L975.831,1629.74C976.932,1630.27 977.399,1631.59 976.872,1632.69C976.493,1633.49 975.701,1633.95 974.876,1633.95Z" style="fill-rule:nonzero;"/>
        <path d="M822.724,1561.28C822.404,1561.28 822.079,1561.21 821.771,1561.06L737.259,1520.7C736.158,1520.17 735.691,1518.85 736.218,1517.75C736.743,1516.65 738.064,1516.18 739.166,1516.71L823.678,1557.07C824.779,1557.6 825.246,1558.92 824.719,1560.02C824.34,1560.81 823.548,1561.28 822.724,1561.28Z" style="fill:white;fill-rule:nonzero;"/>
        <path d="M738.211,1520.91C737.892,1520.91 737.567,1520.84 737.259,1520.7L358.855,1339.96C357.754,1339.43 357.287,1338.11 357.813,1337.01C358.339,1335.9 359.66,1335.44 360.761,1335.96L739.166,1516.71C740.267,1517.23 740.734,1518.55 740.208,1519.65C739.829,1520.45 739.036,1520.91 738.211,1520.91Z" style="fill-rule:nonzero;"/>
        <path d="M972.396,1647.1C972.077,1647.1 971.754,1647.03 971.447,1646.88L816.92,1573.3C815.818,1572.77 815.351,1571.45 815.875,1570.35C816.4,1569.24 817.718,1568.79 818.822,1569.3L973.349,1642.89C974.451,1643.42 974.918,1644.74 974.394,1645.84C974.015,1646.63 973.223,1647.1 972.396,1647.1Z" style="fill-rule:nonzero;"/>
        <path d="M817.87,1573.51C817.55,1573.51 817.228,1573.44 816.92,1573.3L733.468,1533.55C732.366,1533.03 731.898,1531.71 732.423,1530.61C732.949,1529.5 734.268,1529.04 735.37,1529.56L818.822,1569.3C819.924,1569.83 820.392,1571.15 819.867,1572.25C819.488,1573.04 818.696,1573.51 817.87,1573.51Z" style="fill:white;fill-rule:nonzero;"/>
        <path d="M734.418,1533.77C734.099,1533.77 733.776,1533.7 733.468,1533.55L379.213,1364.85C378.111,1364.33 377.643,1363.01 378.168,1361.9C378.692,1360.8 380.012,1360.34 381.115,1360.86L735.37,1529.56C736.472,1530.09 736.94,1531.41 736.415,1532.51C736.036,1533.3 735.244,1533.77 734.418,1533.77Z" style="fill-rule:nonzero;"/>
        <path d="M962.442,1658.02C962.119,1658.02 961.791,1657.95 961.481,1657.8L805.829,1582.59C804.729,1582.06 804.269,1580.74 804.8,1579.64C805.329,1578.54 806.65,1578.07 807.752,1578.61L963.405,1653.82C964.503,1654.35 964.965,1655.67 964.434,1656.77C964.052,1657.56 963.263,1658.02 962.442,1658.02Z" style="fill-rule:nonzero;"/>
        <path d="M806.789,1582.81C806.466,1582.81 806.138,1582.74 805.829,1582.59L730.894,1546.38C729.795,1545.85 729.333,1544.53 729.865,1543.43C730.395,1542.33 731.716,1541.87 732.817,1542.4L807.752,1578.61C808.851,1579.14 809.312,1580.46 808.781,1581.56C808.4,1582.35 807.611,1582.81 806.789,1582.81Z" style="fill:white;fill-rule:nonzero;"/>
        <path d="M731.854,1546.6C731.532,1546.6 731.204,1546.53 730.894,1546.38L398.782,1385.92C397.683,1385.39 397.222,1384.07 397.753,1382.97C398.283,1381.87 399.606,1381.41 400.705,1381.94L732.817,1542.4C733.916,1542.93 734.377,1544.26 733.846,1545.35C733.465,1546.14 732.676,1546.6 731.854,1546.6Z" style="fill-rule:nonzero;"/>
        <path d="M930.008,1707.33L945.143,1713.64L968.545,1686.78L1013.18,1589.75L1013.1,1550.65L997.965,1544.34L930.008,1707.33Z" style="fill-rule:nonzero;"/>
        <path d="M434.37,1405.41L442.068,1409.05L464.67,1361.19L456.971,1357.55L434.37,1405.41Z" style="fill:white;fill-rule:nonzero;"/>
        <path d="M437.313,1404.36L441.014,1406.1L461.728,1362.25L458.026,1360.5L437.313,1404.36ZM442.067,1411.26C441.751,1411.26 441.429,1411.19 441.124,1411.05L433.425,1407.41C432.895,1407.16 432.486,1406.71 432.289,1406.16C432.091,1405.61 432.12,1405 432.371,1404.47L454.973,1356.61C455.495,1355.51 456.812,1355.04 457.916,1355.55L465.615,1359.19C466.145,1359.44 466.554,1359.89 466.751,1360.44C466.949,1361 466.92,1361.6 466.67,1362.13L444.067,1409.99C443.69,1410.79 442.896,1411.26 442.067,1411.26Z" style="fill-rule:nonzero;"/>
        <path d="M509.469,1478.43L545.339,1431.92C544.367,1424.45 542.276,1418.15 534.101,1422.38L520.973,1426.71L520.973,1385.09C520.973,1378.09 516.438,1376.98 510.964,1380.04L488.458,1415.99C483.316,1412.09 478.532,1411.64 474.052,1416.62L463.38,1468.34L509.469,1478.43Z" style="fill:white;fill-rule:nonzero;"/>
        <path d="M465.986,1466.65L508.574,1475.97L543.024,1431.3C542.686,1428.94 541.871,1424.52 539.901,1423.49C538.609,1422.82 536.588,1423.58 535.117,1424.34C535.013,1424.4 534.905,1424.44 534.794,1424.48L521.666,1428.81C520.992,1429.04 520.254,1428.92 519.677,1428.51C519.102,1428.09 518.762,1427.42 518.762,1426.71L518.762,1385.09C518.762,1382.94 518.268,1381.46 517.369,1380.94C516.385,1380.36 514.598,1380.65 512.526,1381.71L490.332,1417.17C490.002,1417.69 489.466,1418.06 488.855,1418.17C488.25,1418.28 487.616,1418.13 487.12,1417.75C482.672,1414.37 479.344,1414.33 476.092,1417.68L465.986,1466.65ZM509.469,1480.64C509.312,1480.64 509.153,1480.62 508.996,1480.59L462.907,1470.5C461.724,1470.24 460.97,1469.08 461.214,1467.89L471.887,1416.18C471.967,1415.79 472.146,1415.44 472.407,1415.15C475.56,1411.64 480.702,1408.6 487.801,1412.88L509.09,1378.87C509.287,1378.56 509.561,1378.29 509.885,1378.11C513.653,1376.01 517.104,1375.66 519.607,1377.12C521.237,1378.08 523.184,1380.24 523.184,1385.09L523.184,1423.66L533.246,1420.33C536.669,1418.6 539.595,1418.34 541.95,1419.57C545.743,1421.56 546.9,1426.78 547.531,1431.63C547.606,1432.21 547.448,1432.8 547.089,1433.27L511.22,1479.78C510.795,1480.33 510.146,1480.64 509.469,1480.64Z" style="fill-rule:nonzero;"/>
        <path d="M561.158,1191.44C552.942,1195.58 546.752,1196.18 542.289,1195.92C526.163,1194.99 515.823,1182 513.752,1179.39C503.063,1165.96 497.912,1143.89 506.972,1130.94C513.495,1121.61 521.709,1125.12 529.222,1114.69C537.75,1102.85 529.007,1093.18 536.874,1082.82C545.933,1070.88 565.894,1071.79 569.483,1071.96C581.8,1072.52 583.267,1078.63 594.911,1078.31C606.797,1077.99 608.37,1072.02 619.28,1071.96C627.946,1071.91 640.58,1075.6 646.239,1085.62C653.341,1098.2 646.078,1114.77 637.645,1123.52C627.521,1134.02 620.392,1128.39 606.212,1136.94C581.639,1151.76 587.511,1178.16 561.158,1191.44Z" style="fill-rule:nonzero;"/>
        <path d="M606.92,1247.37L600.267,1205.98C601.731,1205.82 613.984,1203.68 615.386,1202.98C626.731,1197.33 623.579,1168.86 623.579,1168.86L629.885,1161.32L611.072,1119.22C591.091,1135.87 583.963,1119.52 564.188,1127.71C544.414,1135.9 555.142,1157.92 555.142,1157.92C555.142,1157.92 538.981,1150.8 542.436,1166.43C545.044,1178.24 553.644,1178.98 559.307,1178.5L548.766,1249.47C548.766,1249.47 514.838,1259.11 508.278,1260.85C516.815,1260.45 575.853,1286.12 642.813,1258.06L606.92,1247.37Z" style="fill:white;fill-rule:nonzero;"/>
        <path d="M517.857,1260.5C518.252,1260.6 518.658,1260.7 519.077,1260.81C539.11,1265.88 585.026,1277.49 636.069,1258.36L606.288,1249.49C605.474,1249.25 604.872,1248.56 604.736,1247.72L598.084,1206.33C597.988,1205.73 598.141,1205.12 598.507,1204.64C598.873,1204.16 599.419,1203.85 600.021,1203.78C601.661,1203.6 612.995,1201.58 614.445,1200.99C622.563,1196.94 622.207,1176.59 621.381,1169.1C621.315,1168.5 621.497,1167.9 621.883,1167.44L627.303,1160.96L610.213,1122.71C599.312,1130.86 591.74,1129.6 584.398,1128.37C578.526,1127.39 572.979,1126.46 565.035,1129.75C560.25,1131.73 557.05,1134.77 555.525,1138.78C552.396,1147 557.083,1156.86 557.131,1156.96C557.534,1157.79 557.375,1158.78 556.733,1159.45C556.091,1160.12 555.103,1160.31 554.254,1159.95C552.152,1159.03 547.185,1157.65 545.241,1159.25C544.08,1160.21 543.85,1162.59 544.595,1165.96C546.306,1173.7 550.929,1176.96 559.121,1176.3C559.792,1176.22 560.457,1176.49 560.918,1176.99C561.382,1177.48 561.593,1178.16 561.494,1178.82L550.953,1249.79C550.826,1250.65 550.206,1251.36 549.37,1251.6C549.116,1251.67 530.09,1257.07 517.857,1260.5ZM576.513,1273.39C550.796,1273.39 529.909,1268.11 517.992,1265.09C513.542,1263.97 509.67,1263.01 508.383,1263.06C507.211,1263.1 506.266,1262.3 506.093,1261.19C505.92,1260.07 506.62,1259 507.712,1258.71C513.427,1257.2 540.37,1249.56 546.788,1247.73L556.73,1180.8C545.716,1180.63 541.69,1173.3 540.277,1166.91C539.122,1161.68 539.85,1157.96 542.44,1155.83C544.976,1153.75 548.607,1153.88 551.492,1154.47C550.205,1150.2 549.009,1143.49 551.384,1137.23C553.354,1132.03 557.378,1128.14 563.342,1125.67C572.457,1121.89 579.188,1123.02 585.127,1124.01C592.611,1125.26 599.071,1126.34 609.657,1117.52C610.189,1117.07 610.895,1116.91 611.572,1117.06C612.246,1117.22 612.808,1117.68 613.091,1118.31L631.904,1160.42C632.248,1161.19 632.123,1162.09 631.58,1162.74L625.872,1169.56C626.405,1175.28 627.899,1199.22 616.371,1204.96C614.905,1205.69 606.859,1207.14 602.801,1207.82L608.882,1245.65L643.444,1255.95C644.339,1256.21 644.971,1257.01 645.021,1257.94C645.07,1258.88 644.529,1259.74 643.667,1260.1C619.656,1270.16 596.609,1273.39 576.513,1273.39Z" style="fill-rule:nonzero;"/>
        <path d="M595.649,1208.51C578.485,1208.51 570.636,1195.51 570.282,1194.91C569.664,1193.86 570.016,1192.5 571.069,1191.88C572.123,1191.26 573.474,1191.62 574.092,1192.66C574.436,1193.24 582.382,1206.19 599.967,1203.79C601.169,1203.63 602.292,1204.47 602.457,1205.68C602.622,1206.89 601.775,1208.01 600.565,1208.17C598.85,1208.41 597.209,1208.51 595.649,1208.51Z" style="fill-rule:nonzero;"/>
        <path d="M986.563,2044.97L1046.709,2105.4L1078.6,2093.69L1023.15,2016.38L986.563,2044.97Z" style="fill:white;fill-rule:nonzero;"/>
        <path d="M989.889,2045.17L1047.28,2102.84L1075.11,2092.621L1022.7,2019.54L989.889,2045.17ZM1046.709,2107.61C1046.13,2107.61 1045.569,2107.39 1045.14,2106.96L984.997,2046.53C984.55,2046.08 984.318,2045.46 984.357,2044.83C984.396,2044.2 984.704,2043.61 985.203,2043.23L1021.79,2014.63C1022.26,2014.27 1022.87,2014.11 1023.47,2014.19C1024.06,2014.27 1024.6,2014.6 1024.949,2015.09L1080.39,2092.4C1080.8,2092.97 1080.91,2093.68 1080.71,2094.341C1080.51,2095 1080.01,2095.53 1079.36,2095.77L1047.47,2107.48C1047.23,2107.57 1046.97,2107.61 1046.709,2107.61Z" style="fill-rule:nonzero;"/>
        <path d="M1027.709,2095.95C1027.709,2095.95 1024.8,2121.66 1029.73,2144.38C1032.36,2156.48 1043.27,2165 1055.66,2165L1203.28,2165C1213.83,2165 1218.61,2151.83 1210.53,2145.05C1184.28,2123.06 1135.99,2089.48 1076.63,2079.63L1060.07,2102.8L1027.709,2095.95Z" style="fill-rule:nonzero;"/>
        <path d="M1196.26,2146.92L1043.27,2146.92C1042.05,2146.92 1041.06,2145.93 1041.06,2144.7C1041.06,2143.48 1042.05,2142.49 1043.27,2142.49L1196.26,2142.49C1197.48,2142.49 1198.47,2143.48 1198.47,2144.7C1198.47,2145.93 1197.48,2146.92 1196.26,2146.92Z" style="fill:white;fill-rule:nonzero;"/>
        <path d="M1110.9,2119.74C1110.62,2119.74 1110.33,2119.68 1110.05,2119.57C1108.93,2119.1 1108.39,2117.81 1108.85,2116.68L1116.95,2097.04C1117.42,2095.91 1118.71,2095.38 1119.84,2095.841C1120.97,2096.31 1121.51,2097.6 1121.04,2098.73L1112.94,2118.37C1112.59,2119.22 1111.77,2119.74 1110.9,2119.74Z" style="fill:white;fill-rule:nonzero;"/>
        <path d="M1137.52,2124.9C1137.29,2124.9 1137.06,2124.87 1136.83,2124.79C1135.67,2124.41 1135.04,2123.16 1135.42,2122L1141.28,2104.28C1141.67,2103.12 1142.92,2102.48 1144.08,2102.87C1145.24,2103.25 1145.87,2104.51 1145.48,2105.66L1139.62,2123.38C1139.31,2124.32 1138.45,2124.9 1137.52,2124.9Z" style="fill:white;fill-rule:nonzero;"/>
        <path d="M518.229,1757.24C558.159,1769.91 629.605,1786.29 729.465,1784.93C757.838,1784.54 784.033,1800.22 796.922,1825.5C826.501,1883.5 890.52,1987.95 994.802,2055.64L1044.61,2028.81L917.489,1742.66C905.882,1716.53 884.178,1696.22 857.337,1686.38L605.403,1594C605.403,1594 544.458,1579.71 501.973,1646.98C486.836,1670.94 483.934,1746.35 518.229,1757.24Z" style="fill:white;fill-rule:nonzero;"/>
        <path d="M730.52,1782.71C759.585,1782.71 785.711,1798.65 798.892,1824.5C827.639,1880.87 891.268,1985.35 994.908,2053.071L1041.75,2027.83L915.467,1743.55C904.17,1718.12 882.704,1698.04 856.576,1688.46L604.785,1596.13C601.793,1595.5 544.063,1584.47 503.842,1648.16C493.57,1664.42 489.053,1705.67 498.849,1732.5C503.306,1744.71 510.052,1752.32 518.898,1755.13C560.88,1768.45 631.472,1784.06 729.435,1782.72C729.797,1782.72 730.159,1782.71 730.52,1782.71ZM994.801,2057.851C994.381,2057.851 993.962,2057.73 993.598,2057.5C888.438,1989.23 824.003,1883.47 794.954,1826.5C782.379,1801.84 757.249,1786.72 729.496,1787.14C630.973,1788.46 559.855,1772.77 517.559,1759.34C507.483,1756.15 499.578,1747.39 494.695,1734.01C484.486,1706.05 489.306,1662.89 500.103,1645.79C542.934,1577.98 605.284,1591.7 605.909,1591.85C605.995,1591.87 606.081,1591.89 606.165,1591.93L858.098,1684.31C885.344,1694.3 907.728,1715.24 919.509,1741.76L1046.63,2027.91C1047.1,2028.97 1046.67,2030.21 1045.66,2030.75L995.85,2057.591C995.521,2057.76 995.161,2057.851 994.801,2057.851Z" style="fill-rule:nonzero;"/>
        <path d="M1482.76,480.27L1544.29,449.606C1594.36,424.654 1640.76,393.302 1682.38,356.313L1698,342.429C1706.13,335.205 1718.7,335.598 1726.94,343.333C1775.42,388.879 1830.11,427.333 1889.23,457.458L1931.06,478.772C1940.78,483.724 1945.57,494.955 1942.25,505L1897.39,730.511C1876.51,793.601 1784.86,878.818 1733.68,922.764C1713.86,939.779 1683.66,938.262 1664.22,919.331C1614.84,871.234 1527.87,778.646 1508.15,705.737L1472.28,504.168C1469.67,494.53 1474.02,484.628 1482.76,480.27Z" style="fill:white;fill-rule:nonzero;"/>
        <path d="M1522.32,507.047L1573.27,481.659C1614.72,461 1653.14,435.041 1687.6,404.415L1700.53,392.919C1707.26,386.938 1717.67,387.264 1724.49,393.668C1764.64,431.379 1809.92,463.217 1858.87,488.16L1893.51,505.807C1901.55,509.907 1905.52,519.206 1902.76,527.523L1865.63,714.24C1848.34,766.476 1772.45,837.033 1730.07,873.419C1713.67,887.507 1688.66,886.251 1672.57,870.577C1631.68,830.754 1559.68,754.095 1543.34,693.728L1513.65,526.834C1511.49,518.854 1515.08,510.656 1522.32,507.047Z" style="fill-rule:nonzero;"/>
        <path d="M1701.41,936.691C1687.5,936.691 1673.42,931.376 1662.68,920.916C1612.68,872.214 1525.84,779.578 1506.01,706.314L1496.7,654.018C1496.49,652.817 1497.29,651.669 1498.49,651.455C1499.7,651.244 1500.84,652.042 1501.05,653.245L1510.32,705.351C1529.83,777.406 1616.09,869.362 1665.77,917.747C1684.25,935.752 1713.45,937.218 1732.24,921.086C1784.24,876.431 1874.54,792.247 1895.25,729.946L1940.08,504.569C1940.1,504.48 1940.12,504.392 1940.15,504.306C1943.12,495.318 1938.79,485.188 1930.06,480.741L1888.23,459.428C1828.87,429.185 1774.1,390.667 1725.42,344.943C1718.08,338.049 1706.68,337.669 1699.47,344.08L1683.85,357.963C1642.11,395.061 1595.49,426.558 1545.28,451.584L1483.75,482.248C1475.91,486.155 1472.07,494.932 1474.42,503.591L1489.85,590.279C1490.06,591.479 1489.26,592.628 1488.06,592.842C1486.86,593.062 1485.71,592.257 1485.49,591.052L1470.11,504.554C1467.25,494.027 1472.03,483.15 1481.77,478.292L1543.3,447.629C1593.17,422.775 1639.46,391.497 1680.91,354.66L1696.53,340.776C1705.58,332.73 1719.31,333.131 1728.45,341.722C1776.82,387.157 1831.25,425.435 1890.24,455.49L1932.07,476.803C1942.68,482.209 1947.96,494.554 1944.39,505.562L1899.56,730.943C1899.54,731.032 1899.52,731.121 1899.49,731.207C1878.53,794.535 1787.51,879.458 1735.12,924.441C1725.56,932.646 1713.55,936.691 1701.41,936.691Z" style="fill-rule:nonzero;"/>
        <path d="M1604.88,580.496L1604.88,671.964C1604.88,699.5 1650.81,721.824 1707.46,721.824C1764.11,721.824 1810.04,699.5 1810.04,671.964L1810.04,580.496L1604.88,580.496Z" style="fill:white;fill-rule:nonzero;"/>
        <path d="M1815.76,560.078L1710.53,515.553C1708.54,514.847 1706.38,514.847 1704.39,515.553L1599.16,560.078L1557.27,560.078L1557.27,570.243C1557.27,571.506 1557.98,572.769 1559.41,573.278L1704.39,624.933C1706.38,625.639 1708.54,625.639 1710.53,624.933L1855.51,573.278C1856.93,572.769 1857.65,571.506 1857.65,570.243L1857.65,560.078L1815.76,560.078Z" style="fill-rule:nonzero;"/>
        <path d="M1855.51,557.043L1710.53,505.388C1708.54,504.682 1706.38,504.682 1704.39,505.388L1559.41,557.043C1556.56,558.06 1556.56,562.096 1559.41,563.113L1704.39,614.768C1706.38,615.474 1708.54,615.474 1710.53,614.768L1855.51,563.113C1858.36,562.096 1858.36,558.06 1855.51,557.043Z" style="fill:white;fill-rule:nonzero;"/>
        <path d="M1789.76,634.331C1786.89,634.331 1784.51,636.553 1784.31,639.417L1778.74,720.117L1800.77,720.117L1795.21,639.417C1795.01,636.553 1792.63,634.331 1789.76,634.331Z" style="fill:white;fill-rule:nonzero;"/>
        <path d="M1781.11,717.906L1798.41,717.906L1793,639.568C1792.88,637.871 1791.46,636.542 1789.76,636.542C1788.06,636.542 1786.63,637.871 1786.51,639.568L1781.11,717.906ZM1800.77,722.327L1778.74,722.327C1778.13,722.327 1777.54,722.072 1777.12,721.625C1776.71,721.176 1776.49,720.576 1776.54,719.965L1782.1,639.266C1782.38,635.259 1785.74,632.12 1789.76,632.12C1793.77,632.12 1797.14,635.259 1797.41,639.266L1802.98,719.965C1803.02,720.576 1802.81,721.176 1802.39,721.625C1801.97,722.072 1801.39,722.327 1800.77,722.327Z" style="fill-rule:nonzero;"/>
        <path d="M1789.76,635.531C1788.54,635.531 1787.55,634.542 1787.55,633.32L1787.55,592.196L1706.69,562.15C1705.54,561.725 1704.96,560.451 1705.39,559.307C1705.81,558.165 1707.09,557.582 1708.23,558.005L1790.53,588.587C1791.39,588.908 1791.97,589.735 1791.97,590.659L1791.97,633.32C1791.97,634.542 1790.98,635.531 1789.76,635.531Z" style="fill-rule:nonzero;"/>
        <path d="M1426.51,936.387C1426.16,936.387 1425.81,936.307 1425.49,936.134C1417.91,932.162 1409.88,928.399 1401.65,924.951C1400.52,924.478 1399.99,923.183 1400.46,922.058C1400.93,920.929 1402.23,920.396 1403.36,920.871C1411.71,924.368 1419.84,928.185 1427.54,932.218C1428.62,932.786 1429.04,934.12 1428.47,935.202C1428.08,935.957 1427.31,936.387 1426.51,936.387ZM1470.62,965.694C1470.12,965.694 1469.62,965.528 1469.21,965.185C1462.53,959.645 1455.43,954.373 1448.11,949.511C1447.1,948.835 1446.82,947.464 1447.49,946.447C1448.17,945.428 1449.54,945.15 1450.56,945.828C1458.01,950.774 1465.24,956.143 1472.03,961.783C1472.97,962.562 1473.1,963.955 1472.32,964.896C1471.89,965.422 1471.25,965.694 1470.62,965.694ZM1507.3,1003.88C1506.63,1003.88 1505.96,1003.58 1505.53,1003C1500.34,996.125 1494.6,989.413 1488.47,983.048C1487.62,982.169 1487.65,980.771 1488.53,979.924C1489.41,979.078 1490.81,979.104 1491.66,979.982C1497.91,986.472 1503.76,993.32 1509.06,1000.33C1509.79,1001.31 1509.6,1002.7 1508.63,1003.43C1508.23,1003.73 1507.76,1003.88 1507.3,1003.88ZM1533.32,1049.92C1532.43,1049.92 1531.6,1049.38 1531.26,1048.51C1528.11,1040.51 1524.3,1032.57 1519.95,1024.9C1519.35,1023.83 1519.72,1022.49 1520.78,1021.88C1521.84,1021.28 1523.19,1021.65 1523.79,1022.71C1528.25,1030.56 1532.14,1038.7 1535.37,1046.89C1535.82,1048.03 1535.26,1049.31 1534.12,1049.76C1533.86,1049.87 1533.58,1049.92 1533.32,1049.92ZM1534.3,1069.92C1534.21,1069.92 1534.13,1069.92 1534.04,1069.91C1532.64,1069.75 1531.24,1069.59 1529.84,1069.44C1521.59,1068.53 1514.37,1067.92 1507.76,1067.57C1506.54,1067.5 1505.61,1066.46 1505.67,1065.24C1505.74,1064.02 1506.83,1063.1 1508,1063.15C1514.69,1063.51 1521.99,1064.13 1530.32,1065.04C1531.73,1065.19 1533.14,1065.35 1534.55,1065.52C1535.77,1065.66 1536.63,1066.76 1536.49,1067.97C1536.36,1069.1 1535.41,1069.92 1534.3,1069.92ZM1455.15,1071.43C1454.16,1071.43 1453.26,1070.76 1453.01,1069.75C1452.72,1068.56 1453.44,1067.37 1454.63,1067.07C1462.93,1065.03 1471.63,1063.74 1481.23,1063.14C1482.46,1063.1 1483.49,1063.98 1483.57,1065.2C1483.65,1066.42 1482.72,1067.47 1481.5,1067.55C1472.18,1068.14 1463.73,1069.38 1455.69,1071.37C1455.51,1071.41 1455.33,1071.43 1455.15,1071.43ZM1586.54,1078.99C1586.37,1078.99 1586.19,1078.97 1586.01,1078.92C1577.91,1076.93 1569.22,1075.15 1560.19,1073.61C1558.99,1073.41 1558.18,1072.26 1558.38,1071.06C1558.59,1069.86 1559.73,1069.05 1560.93,1069.25C1570.06,1070.81 1578.86,1072.61 1587.07,1074.63C1588.25,1074.92 1588.98,1076.12 1588.69,1077.3C1588.44,1078.31 1587.54,1078.99 1586.54,1078.99ZM1408.94,1096.2C1408.36,1096.2 1407.78,1095.97 1407.34,1095.52C1406.5,1094.64 1406.53,1093.24 1407.41,1092.39C1413.98,1086.09 1421.36,1080.75 1429.33,1076.52C1430.41,1075.95 1431.74,1076.36 1432.32,1077.44C1432.89,1078.52 1432.48,1079.86 1431.4,1080.43C1423.79,1084.46 1416.75,1089.56 1410.47,1095.58C1410.04,1095.99 1409.49,1096.2 1408.94,1096.2ZM1636.55,1096.43C1636.23,1096.43 1635.91,1096.36 1635.6,1096.22C1627.95,1092.57 1619.77,1089.24 1611.27,1086.31C1610.12,1085.91 1609.51,1084.65 1609.91,1083.5C1610.3,1082.35 1611.56,1081.73 1612.72,1082.13C1621.37,1085.11 1629.71,1088.51 1637.5,1092.23C1638.6,1092.75 1639.07,1094.07 1638.55,1095.18C1638.17,1095.97 1637.37,1096.43 1636.55,1096.43ZM1544.77,1101.47C1543.6,1101.47 1542.62,1100.55 1542.56,1099.37C1542.15,1090.91 1541.04,1082.56 1539.25,1074.55L1539.01,1073.51C1538.74,1072.31 1539.48,1071.13 1540.67,1070.85C1541.86,1070.59 1543.05,1071.33 1543.32,1072.51L1543.57,1073.58C1545.41,1081.84 1546.56,1090.44 1546.98,1099.15C1547.04,1100.37 1546.1,1101.41 1544.88,1101.47L1544.77,1101.47ZM1680.74,1125.46C1680.21,1125.46 1679.68,1125.27 1679.26,1124.89C1673.87,1120.05 1668.15,1115.55 1662.26,1111.52C1661.01,1110.66 1659.75,1109.82 1658.49,1109C1657.46,1108.33 1657.17,1106.96 1657.84,1105.94C1658.51,1104.91 1659.87,1104.62 1660.9,1105.29C1662.19,1106.13 1663.48,1106.99 1664.76,1107.87C1670.81,1112.01 1676.68,1116.63 1682.21,1121.6C1683.12,1122.42 1683.2,1123.82 1682.38,1124.72C1681.94,1125.21 1681.34,1125.46 1680.74,1125.46ZM1383.79,1141.89C1383.67,1141.89 1383.55,1141.88 1383.43,1141.86C1382.22,1141.66 1381.41,1140.52 1381.61,1139.31C1383.07,1130.53 1386.14,1121.92 1390.74,1113.74C1391.34,1112.68 1392.69,1112.3 1393.75,1112.9C1394.82,1113.5 1395.19,1114.84 1394.6,1115.91C1390.25,1123.64 1387.35,1131.76 1385.97,1140.04C1385.79,1141.12 1384.85,1141.89 1383.79,1141.89ZM1538.25,1153.87C1538.03,1153.87 1537.81,1153.84 1537.59,1153.77C1536.42,1153.41 1535.77,1152.17 1536.14,1151C1538.68,1142.84 1540.52,1134.26 1541.6,1125.47C1541.75,1124.26 1542.87,1123.4 1544.06,1123.55C1545.27,1123.7 1546.14,1124.8 1545.99,1126.01C1544.88,1135.06 1542.98,1143.91 1540.36,1152.32C1540.06,1153.27 1539.19,1153.87 1538.25,1153.87ZM1714.02,1166.5C1713.25,1166.5 1712.51,1166.1 1712.1,1165.38C1707.83,1157.92 1702.85,1150.67 1697.29,1143.84C1696.52,1142.89 1696.67,1141.5 1697.62,1140.73C1698.56,1139.96 1699.95,1140.1 1700.73,1141.05C1706.43,1148.06 1711.55,1155.51 1715.94,1163.19C1716.54,1164.25 1716.18,1165.6 1715.12,1166.2C1714.77,1166.4 1714.39,1166.5 1714.02,1166.5ZM1396.04,1191.95C1395.37,1191.95 1394.71,1191.64 1394.28,1191.07C1388.6,1183.55 1384.63,1175.3 1382.48,1166.53C1382.19,1165.34 1382.92,1164.14 1384.1,1163.85C1385.29,1163.56 1386.49,1164.29 1386.78,1165.47C1388.79,1173.66 1392.49,1181.37 1397.81,1188.4C1398.54,1189.38 1398.35,1190.76 1397.37,1191.5C1396.98,1191.8 1396.51,1191.95 1396.04,1191.95ZM1512.14,1199.53C1511.59,1199.53 1511.04,1199.32 1510.61,1198.91C1509.73,1198.06 1509.7,1196.66 1510.55,1195.78C1516.35,1189.78 1521.52,1182.77 1525.91,1174.94C1526.51,1173.88 1527.86,1173.5 1528.92,1174.09C1529.99,1174.69 1530.37,1176.04 1529.77,1177.1C1525.19,1185.26 1519.79,1192.58 1513.73,1198.85C1513.3,1199.3 1512.72,1199.53 1512.14,1199.53ZM1731.55,1216.24C1730.47,1216.24 1729.52,1215.45 1729.36,1214.35C1728.13,1205.9 1726,1197.4 1723.04,1189.08C1722.63,1187.93 1723.23,1186.67 1724.38,1186.26C1725.53,1185.85 1726.79,1186.45 1727.2,1187.6C1730.26,1196.19 1732.46,1204.98 1733.74,1213.71C1733.91,1214.92 1733.08,1216.04 1731.87,1216.22C1731.76,1216.24 1731.65,1216.24 1731.55,1216.24ZM1439.58,1220.58C1439.39,1220.58 1439.2,1220.56 1439.01,1220.51C1430.19,1218.18 1421.85,1214.47 1414.22,1209.5C1413.2,1208.84 1412.91,1207.47 1413.57,1206.45C1414.24,1205.42 1415.61,1205.14 1416.63,1205.8C1423.87,1210.51 1431.78,1214.02 1440.14,1216.24C1441.32,1216.55 1442.03,1217.76 1441.71,1218.94C1441.45,1219.93 1440.56,1220.58 1439.58,1220.58ZM1465.86,1222.97C1464.73,1222.97 1463.76,1222.1 1463.66,1220.94C1463.56,1219.73 1464.46,1218.66 1465.68,1218.55C1474.46,1217.79 1482.68,1215.39 1490.11,1211.41C1491.19,1210.83 1492.52,1211.24 1493.1,1212.31C1493.68,1213.39 1493.27,1214.73 1492.2,1215.31C1484.24,1219.57 1475.45,1222.14 1466.06,1222.96C1465.99,1222.96 1465.93,1222.97 1465.86,1222.97Z" style="fill-rule:nonzero;"/>
        <path d="M787.884,975.853C787.301,975.853 786.721,975.624 786.286,975.168C785.442,974.285 785.474,972.886 786.357,972.044C792.721,965.964 799.458,960.023 806.383,954.388C807.33,953.617 808.724,953.76 809.493,954.708C810.264,955.653 810.122,957.046 809.175,957.816C802.34,963.38 795.69,969.242 789.412,975.239C788.983,975.649 788.434,975.853 787.884,975.853ZM752.716,1015.51C752.257,1015.51 751.795,1015.36 751.399,1015.07C750.419,1014.34 750.216,1012.96 750.945,1011.98C751.97,1010.6 753.009,1009.23 754.057,1007.87C758.421,1002.23 763.052,996.639 767.819,991.267C768.63,990.354 770.027,990.272 770.94,991.082C771.853,991.893 771.938,993.29 771.126,994.204C766.424,999.5 761.858,1005.01 757.554,1010.57C756.523,1011.91 755.502,1013.26 754.492,1014.61C754.058,1015.2 753.392,1015.51 752.716,1015.51ZM725.138,1060.76C724.811,1060.76 724.477,1060.68 724.163,1060.53C723.067,1059.99 722.617,1058.67 723.157,1057.57C727.102,1049.57 731.427,1041.68 736.014,1034.14C736.648,1033.1 738.007,1032.77 739.052,1033.4C740.095,1034.04 740.426,1035.4 739.792,1036.44C735.272,1043.87 731.009,1051.64 727.123,1059.52C726.739,1060.3 725.954,1060.76 725.138,1060.76ZM705.916,1110.15C705.709,1110.15 705.5,1110.12 705.293,1110.06C704.122,1109.72 703.45,1108.49 703.793,1107.31C706.285,1098.81 709.181,1090.3 712.401,1082.02C712.845,1080.89 714.124,1080.32 715.264,1080.77C716.402,1081.21 716.965,1082.49 716.522,1083.63C713.348,1091.79 710.493,1100.18 708.036,1108.56C707.754,1109.52 706.872,1110.15 705.916,1110.15ZM695.518,1162.11C695.439,1162.11 695.358,1162.1 695.277,1162.1C694.063,1161.96 693.187,1160.87 693.318,1159.66C694.271,1150.88 695.645,1142 697.4,1133.25C697.639,1132.06 698.795,1131.27 700.002,1131.52C701.199,1131.76 701.976,1132.93 701.735,1134.13C700.005,1142.74 698.652,1151.49 697.714,1160.14C697.591,1161.27 696.632,1162.11 695.518,1162.11ZM694.801,1215.08C693.665,1215.08 692.699,1214.21 692.6,1213.05C691.966,1205.58 691.643,1197.93 691.643,1190.3C691.643,1188.98 691.653,1187.66 691.671,1186.33C691.688,1185.11 692.681,1184.08 693.913,1184.15C695.134,1184.17 696.11,1185.18 696.092,1186.4C696.074,1187.7 696.064,1189 696.064,1190.3C696.064,1197.8 696.382,1205.33 697.007,1212.68C697.109,1213.9 696.208,1214.96 694.991,1215.07C694.928,1215.07 694.864,1215.08 694.801,1215.08Z" style="fill-rule:nonzero;"/>
        <path d="M486.567,831.734C486.303,831.734 486.035,831.687 485.774,831.587C484.635,831.149 484.066,829.871 484.504,828.731C530.654,708.616 610.64,605.435 715.813,530.345C759.6,499.083 806.93,473.301 856.487,453.719C857.625,453.266 858.908,453.828 859.356,454.963C859.804,456.099 859.249,457.383 858.113,457.83C808.889,477.282 761.878,502.89 718.382,533.941C613.917,608.529 534.47,711.014 488.632,830.315C488.293,831.194 487.456,831.734 486.567,831.734Z" style="fill-rule:nonzero;"/>
        <path d="M408.403,864.31C408.17,864.31 407.932,864.273 407.699,864.196C406.541,863.807 405.918,862.553 406.308,861.396C432.554,783.296 471.516,710.483 522.111,644.976C574.47,577.188 637.999,518.984 710.931,471.984C711.958,471.328 713.327,471.619 713.986,472.645C714.647,473.672 714.352,475.039 713.325,475.702C571.143,567.33 463.596,704.805 410.498,862.803C410.188,863.728 409.327,864.31 408.403,864.31Z" style="fill-rule:nonzero;"/>
        <path d="M881.29,439.851L889.274,463.981L903.24,448.322L881.29,439.851ZM888.377,470.518C888.228,470.518 888.078,470.503 887.928,470.473C887.155,470.311 886.526,469.752 886.278,469.002L875.623,436.797C875.354,435.986 875.578,435.092 876.197,434.5C876.815,433.911 877.723,433.728 878.517,434.041L907.812,445.347C908.489,445.608 908.995,446.185 909.166,446.891C909.336,447.595 909.149,448.339 908.666,448.881L890.026,469.78C889.603,470.255 889,470.518 888.377,470.518Z" style="fill-rule:nonzero;"/>
        <path d="M1417.39,436.085C1416.4,436.085 1415.5,435.42 1415.25,434.418L1412.3,422.829C1412,421.646 1412.72,420.443 1413.9,420.144C1415.09,419.826 1416.29,420.556 1416.59,421.741L1419.54,433.33C1419.84,434.513 1419.12,435.716 1417.94,436.016C1417.75,436.063 1417.57,436.085 1417.39,436.085Z" style="fill-rule:nonzero;"/>
        <path d="M1407.08,395.519C1406.09,395.519 1405.19,394.854 1404.94,393.852L1401.99,382.26C1401.69,381.077 1402.41,379.875 1403.59,379.575C1404.78,379.262 1405.98,379.989 1406.28,381.172L1409.22,392.764C1409.52,393.947 1408.81,395.149 1407.62,395.449C1407.44,395.497 1407.26,395.519 1407.08,395.519Z" style="fill-rule:nonzero;"/>
        <path d="M1425.25,406.337C1424.27,406.337 1423.37,405.67 1423.11,404.668C1422.81,403.485 1423.53,402.283 1424.71,401.982L1436.3,399.046C1437.49,398.757 1438.69,399.467 1438.99,400.648C1439.29,401.832 1438.57,403.034 1437.39,403.334L1425.8,406.27C1425.62,406.315 1425.43,406.337 1425.25,406.337Z" style="fill-rule:nonzero;"/>
        <path d="M1384.68,416.614C1383.69,416.614 1382.79,415.946 1382.54,414.945C1382.24,413.762 1382.95,412.559 1384.13,412.259L1395.73,409.323C1396.92,409.029 1398.12,409.742 1398.41,410.925C1398.71,412.108 1398,413.311 1396.81,413.61L1385.22,416.547C1385.04,416.592 1384.86,416.614 1384.68,416.614Z" style="fill-rule:nonzero;"/>
        <path d="M1336.09,370.962C1330.75,370.962 1325.54,373.689 1322.62,378.601C1320.48,382.191 1319.87,386.401 1320.9,390.456C1321.93,394.51 1324.48,397.921 1328.08,400.061C1331.67,402.203 1335.89,402.82 1339.94,401.788C1344,400.763 1347.41,398.217 1349.54,394.625C1351.68,391.034 1352.29,386.824 1351.26,382.77C1350.23,378.715 1347.68,375.304 1344.09,373.165C1341.58,371.673 1338.82,370.962 1336.09,370.962ZM1336.06,406.697C1332.49,406.697 1328.97,405.737 1325.82,403.861C1321.21,401.117 1317.94,396.743 1316.62,391.544C1315.3,386.347 1316.08,380.946 1318.82,376.338C1324.48,366.831 1336.83,363.704 1346.35,369.365C1350.96,372.109 1354.22,376.483 1355.55,381.682C1356.87,386.878 1356.08,392.28 1353.34,396.887C1350.6,401.495 1346.23,404.757 1341.03,406.074C1339.38,406.49 1337.72,406.697 1336.06,406.697Z" style="fill-rule:nonzero;"/>
        <path d="M368.766,970.304L368.787,970.304L368.766,970.304ZM378.886,966.77C378.099,966.77 377.307,966.867 376.523,967.065C374.05,967.691 371.97,969.244 370.666,971.435C369.362,973.625 368.989,976.193 369.617,978.666C370.247,981.14 371.801,983.221 373.996,984.527C378.522,987.226 384.4,985.734 387.091,981.211C388.395,979.02 388.767,976.45 388.139,973.979C387.511,971.504 385.957,969.425 383.763,968.119C382.262,967.225 380.587,966.77 378.886,966.77ZM378.863,990.289C376.432,990.292 373.971,989.657 371.734,988.327C368.525,986.416 366.251,983.372 365.332,979.756C364.412,976.137 364.958,972.378 366.866,969.172C368.774,965.966 371.818,963.695 375.438,962.778C379.053,961.862 382.814,962.406 386.024,964.319C389.231,966.228 391.505,969.272 392.424,972.89C393.344,976.506 392.799,980.265 390.891,983.474C388.282,987.856 383.63,990.289 378.863,990.289Z" style="fill-rule:nonzero;"/>
        <path d="M370.859,1050.54C370.293,1050.54 369.728,1050.32 369.296,1049.89L359.65,1040.25C358.787,1039.39 358.787,1037.99 359.649,1037.13C360.513,1036.26 361.913,1036.26 362.777,1037.13L372.422,1046.77C373.286,1047.63 373.286,1049.03 372.423,1049.89C371.991,1050.32 371.424,1050.54 370.859,1050.54Z" style="fill-rule:nonzero;"/>
        <path d="M404.617,1084.27C404.052,1084.27 403.486,1084.05 403.054,1083.62L393.409,1073.98C392.545,1073.12 392.545,1071.72 393.408,1070.86C394.271,1069.99 395.671,1069.99 396.535,1070.86L406.18,1080.49C407.044,1081.36 407.044,1082.76 406.182,1083.62C405.75,1084.05 405.183,1084.27 404.617,1084.27Z" style="fill-rule:nonzero;"/>
        <path d="M361.214,1084.27C360.648,1084.27 360.082,1084.05 359.649,1083.62C358.787,1082.76 358.787,1081.36 359.65,1080.49L369.296,1070.86C370.159,1069.99 371.56,1069.99 372.423,1070.86C373.286,1071.72 373.286,1073.12 372.422,1073.98L362.777,1083.62C362.345,1084.05 361.779,1084.27 361.214,1084.27Z" style="fill-rule:nonzero;"/>
        <path d="M394.972,1050.54C394.407,1050.54 393.84,1050.32 393.408,1049.89C392.545,1049.03 392.545,1047.63 393.409,1046.77L403.054,1037.13C403.917,1036.26 405.318,1036.26 406.182,1037.13C407.044,1037.99 407.044,1039.39 406.18,1040.25L396.535,1049.89C396.104,1050.32 395.538,1050.54 394.972,1050.54Z" style="fill-rule:nonzero;"/>
    </g>
</svg>
